<?xml version="1.0" encoding="UTF-8" standalone="no"?><!DOCTYPE svg PUBLIC "-//W3C//DTD SVG 1.1//EN" "http://www.w3.org/Graphics/SVG/1.1/DTD/svg11.dtd"><svg width="100%" height="100%" viewBox="0 0 373 260" version="1.1" xmlns="http://www.w3.org/2000/svg" xmlns:xlink="http://www.w3.org/1999/xlink" xml:space="preserve" xmlns:serif="http://www.serif.com/" style="fill-rule:evenodd;clip-rule:evenodd;stroke-linejoin:round;stroke-miterlimit:1.5;"><g><path d="M0.782,0l247.109,0.946c0,0 4.32,127.961 -1.331,170.073c-4.025,29.991 -65.828,88.762 -65.828,88.762l-104.354,-1.304c0,0 -65.541,-54.835 -71.556,-88.937c-7.459,-42.293 -4.04,-169.54 -4.04,-169.54Z" style="fill:#5eb5d1;"/><path d="M8.873,8.758l230.396,0.882c0,0 4.027,119.306 -1.242,158.57c-3.752,27.962 -61.375,82.757 -61.375,82.757l-97.296,-1.215c0,0 -61.108,-51.126 -66.715,-82.921c-6.955,-39.433 -3.768,-158.073 -3.768,-158.073Z" style="fill:none;stroke:#d91e18;stroke-width:2px;stroke-dasharray:2,2;"/></g><g><path d="M24.14,29.942l14.475,0c4.884,0 8.548,1.31 10.99,3.931c2.442,2.621 3.663,6.463 3.663,11.526l0,6.165c0,5.063 -1.221,8.905 -3.663,11.526c-2.442,2.621 -6.106,3.931 -10.99,3.931l-4.646,0l0,25.465l-9.829,0l0,-62.544Zm14.475,28.144c1.608,0 2.814,-0.446 3.619,-1.34c0.804,-0.893 1.206,-2.412 1.206,-4.557l0,-7.415c0,-2.145 -0.402,-3.664 -1.206,-4.557c-0.805,-0.894 -2.011,-1.34 -3.619,-1.34l-4.646,0l0,19.209l4.646,0Z" style="fill:#fed2cd;fill-rule:nonzero;stroke:#d91e18;stroke-width:1px;stroke-miterlimit:2;"/><path d="M72.836,93.379c-4.825,0 -8.518,-1.37 -11.08,-4.11c-2.561,-2.74 -3.842,-6.612 -3.842,-11.615l0,-32.88c0,-5.004 1.281,-8.876 3.842,-11.616c2.562,-2.74 6.255,-4.11 11.08,-4.11c4.824,0 8.517,1.37 11.079,4.11c2.561,2.74 3.842,6.612 3.842,11.616l0,32.88c0,5.003 -1.281,8.875 -3.842,11.615c-2.562,2.74 -6.255,4.11 -11.079,4.11Zm0,-8.935c3.395,0 5.092,-2.055 5.092,-6.165l0,-34.131c0,-4.11 -1.697,-6.165 -5.092,-6.165c-3.396,0 -5.093,2.055 -5.093,6.165l0,34.131c0,4.11 1.697,6.165 5.093,6.165Z" style="fill:#fed2cd;fill-rule:nonzero;stroke:#d91e18;stroke-width:1px;stroke-miterlimit:2;"/><path d="M108.218,93.379c-4.706,0 -8.295,-1.34 -10.767,-4.02c-2.472,-2.681 -3.708,-6.463 -3.708,-11.348l0,-33.595c0,-4.884 1.236,-8.667 3.708,-11.347c2.472,-2.681 6.061,-4.021 10.767,-4.021c4.705,0 8.294,1.34 10.766,4.021c2.472,2.68 3.708,6.463 3.708,11.347l0,6.612l-9.292,0l0,-7.237c0,-3.872 -1.638,-5.808 -4.914,-5.808c-3.276,0 -4.915,1.936 -4.915,5.808l0,34.935c0,3.812 1.639,5.718 4.915,5.718c3.276,0 4.914,-1.906 4.914,-5.718l0,-9.56l9.292,0l0,8.845c0,4.885 -1.236,8.667 -3.708,11.348c-2.472,2.68 -6.061,4.02 -10.766,4.02Z" style="fill:#fed2cd;fill-rule:nonzero;stroke:#d91e18;stroke-width:1px;stroke-miterlimit:2;"/><path d="M128.589,29.942l9.829,0l0,26.358l12.508,-26.358l9.829,0l-11.705,22.962l11.883,39.582l-10.275,0l-8.309,-27.877l-3.931,7.952l0,19.925l-9.829,0l0,-62.544Z" style="fill:#fed2cd;fill-rule:nonzero;stroke:#d91e18;stroke-width:1px;stroke-miterlimit:2;"/><path d="M165.58,29.942l26.804,0l0,8.935l-16.976,0l0,16.529l13.492,0l0,8.935l-13.492,0l0,19.21l16.976,0l0,8.935l-26.804,0l0,-62.544Z" style="fill:#fed2cd;fill-rule:nonzero;stroke:#d91e18;stroke-width:1px;stroke-miterlimit:2;"/><path d="M205.697,38.877l-10.275,0l0,-8.935l30.379,0l0,8.935l-10.276,0l0,53.609l-9.828,0l0,-53.609Z" style="fill:#fed2cd;fill-rule:nonzero;stroke:#d91e18;stroke-width:1px;stroke-miterlimit:2;"/></g><g><path d="M31.965,110.943l-10.275,0l0,-8.935l30.378,0l0,8.935l-10.275,0l0,53.609l-9.828,0l0,-53.609Z" style="fill:#fed2cd;fill-rule:nonzero;stroke:#d91e18;stroke-width:1px;stroke-miterlimit:2;"/><path d="M56.804,102.008l9.828,0l0,25.464l10.543,0l0,-25.464l9.829,0l0,62.544l-9.829,0l0,-28.145l-10.543,0l0,28.145l-9.828,0l0,-62.544Z" style="fill:#fed2cd;fill-rule:nonzero;stroke:#d91e18;stroke-width:1px;stroke-miterlimit:2;"/><path d="M94.33,102.008l26.805,0l0,8.935l-16.976,0l0,16.529l13.491,0l0,8.935l-13.491,0l0,19.21l16.976,0l0,8.935l-26.805,0l0,-62.544Z" style="fill:#fed2cd;fill-rule:nonzero;stroke:#d91e18;stroke-width:1px;stroke-miterlimit:2;"/><path d="M126.764,102.008l14.564,0c5.063,0 8.756,1.176 11.079,3.529c2.323,2.353 3.485,5.971 3.485,10.856l0,3.842c0,6.493 -2.145,10.603 -6.434,12.33l0,0.179c2.383,0.715 4.066,2.174 5.049,4.378c0.983,2.204 1.474,5.152 1.474,8.845l0,10.99c0,1.787 0.059,3.232 0.179,4.334c0.119,1.102 0.417,2.189 0.893,3.261l-10.007,0c-0.357,-1.013 -0.596,-1.966 -0.715,-2.859c-0.119,-0.894 -0.178,-2.502 -0.178,-4.825l0,-11.437c0,-2.859 -0.462,-4.854 -1.385,-5.986c-0.924,-1.132 -2.517,-1.698 -4.781,-1.698l-3.395,0l0,26.805l-9.828,0l0,-62.544Zm13.402,26.804c1.966,0 3.44,-0.506 4.423,-1.519c0.983,-1.012 1.474,-2.71 1.474,-5.092l0,-4.825c0,-2.264 -0.402,-3.902 -1.206,-4.914c-0.804,-1.013 -2.07,-1.519 -3.797,-1.519l-4.468,0l0,17.869l3.574,0Z" style="fill:#fed2cd;fill-rule:nonzero;stroke:#d91e18;stroke-width:1px;stroke-miterlimit:2;"/><path d="M170.366,102.008l13.313,0l10.186,62.544l-9.829,0l-1.787,-12.42l0,0.179l-11.168,0l-1.787,12.241l-9.114,0l10.186,-62.544Zm10.722,41.815l-4.378,-30.915l-0.179,0l-4.289,30.915l8.846,0Z" style="fill:#fed2cd;fill-rule:nonzero;stroke:#d91e18;stroke-width:1px;stroke-miterlimit:2;"/><path d="M198.6,102.008l14.832,0c5.063,0 8.756,1.176 11.079,3.529c2.323,2.353 3.485,5.971 3.485,10.856l0,2.502c0,3.216 -0.521,5.837 -1.564,7.862c-1.042,2.026 -2.635,3.485 -4.78,4.378l0,0.179c4.885,1.668 7.327,6.016 7.327,13.045l0,5.361c0,4.825 -1.266,8.503 -3.797,11.035c-2.532,2.531 -6.24,3.797 -11.124,3.797l-15.458,0l0,-62.544Zm13.671,25.464c1.965,0 3.44,-0.506 4.422,-1.519c0.983,-1.012 1.475,-2.71 1.475,-5.093l0,-3.484c0,-2.264 -0.402,-3.902 -1.207,-4.914c-0.804,-1.013 -2.069,-1.519 -3.797,-1.519l-4.735,0l0,16.529l3.842,0Zm1.787,28.145c1.727,0 3.008,-0.462 3.842,-1.385c0.834,-0.923 1.25,-2.517 1.25,-4.78l0,-5.45c0,-2.86 -0.491,-4.84 -1.474,-5.942c-0.983,-1.102 -2.606,-1.653 -4.869,-1.653l-4.378,0l0,19.21l5.629,0Z" style="fill:#fed2cd;fill-rule:nonzero;stroke:#d91e18;stroke-width:1px;stroke-miterlimit:2;"/><path d="M248.993,165.445c-4.765,0 -8.399,-1.355 -10.901,-4.065c-2.501,-2.71 -3.752,-6.597 -3.752,-11.66l0,-47.712l9.828,0l0,48.427c0,2.144 0.432,3.693 1.296,4.646c0.863,0.953 2.099,1.429 3.708,1.429c1.608,0 2.844,-0.476 3.708,-1.429c0.863,-0.953 1.295,-2.502 1.295,-4.646l0,-48.427l9.471,0l0,47.712c0,5.063 -1.251,8.95 -3.752,11.66c-2.502,2.71 -6.136,4.065 -10.901,4.065Z" style="fill:#fed2cd;fill-rule:nonzero;stroke:#d91e18;stroke-width:1px;stroke-miterlimit:2;"/><path d="M270.615,102.008l15.011,0c4.884,0 8.548,1.31 10.99,3.931c2.442,2.621 3.663,6.463 3.663,11.526l0,31.63c0,5.063 -1.221,8.905 -3.663,11.526c-2.442,2.62 -6.106,3.931 -10.99,3.931l-15.011,0l0,-62.544Zm14.832,53.609c1.609,0 2.845,-0.477 3.708,-1.43c0.864,-0.953 1.296,-2.501 1.296,-4.646l0,-32.523c0,-2.144 -0.432,-3.693 -1.296,-4.646c-0.863,-0.953 -2.099,-1.429 -3.708,-1.429l-5.003,0l0,44.674l5.003,0Z" style="fill:#fed2cd;fill-rule:nonzero;stroke:#d91e18;stroke-width:1px;stroke-miterlimit:2;"/><path d="M306.891,102.008l15.011,0c4.884,0 8.547,1.31 10.989,3.931c2.443,2.621 3.664,6.463 3.664,11.526l0,31.63c0,5.063 -1.221,8.905 -3.664,11.526c-2.442,2.62 -6.105,3.931 -10.989,3.931l-15.011,0l0,-62.544Zm14.832,53.609c1.608,0 2.844,-0.477 3.708,-1.43c0.864,-0.953 1.295,-2.501 1.295,-4.646l0,-32.523c0,-2.144 -0.431,-3.693 -1.295,-4.646c-0.864,-0.953 -2.1,-1.429 -3.708,-1.429l-5.004,0l0,44.674l5.004,0Z" style="fill:#fed2cd;fill-rule:nonzero;stroke:#d91e18;stroke-width:1px;stroke-miterlimit:2;"/><path d="M350.582,137.926l-11.883,-35.918l10.454,0l6.701,22.962l0.179,0l6.701,-22.962l9.56,0l-11.883,35.918l0,26.626l-9.829,0l0,-26.626Z" style="fill:#fed2cd;fill-rule:nonzero;stroke:#d91e18;stroke-width:1px;stroke-miterlimit:2;"/></g></svg>