<?xml version="1.0" encoding="UTF-8" standalone="no"?>
<!-- Created with Inkscape (http://www.inkscape.org/) -->

<svg
   xmlns:dc="http://purl.org/dc/elements/1.1/"
   xmlns:cc="http://creativecommons.org/ns#"
   xmlns:rdf="http://www.w3.org/1999/02/22-rdf-syntax-ns#"
   xmlns:svg="http://www.w3.org/2000/svg"
   xmlns="http://www.w3.org/2000/svg"
   xmlns:sodipodi="http://sodipodi.sourceforge.net/DTD/sodipodi-0.dtd"
   xmlns:inkscape="http://www.inkscape.org/namespaces/inkscape"
   version="1.1"
   id="svg7230"
   xml:space="preserve"
   viewBox="0 0 500 500"
   sodipodi:docname="sad.svg"
   inkscape:version="0.92.2 5c3e80d, 2017-08-06"><metadata
     id="metadata7236"><rdf:RDF><cc:Work
         rdf:about=""><dc:format>image/svg+xml</dc:format><dc:type
           rdf:resource="http://purl.org/dc/dcmitype/StillImage" /><dc:title></dc:title></cc:Work></rdf:RDF></metadata><defs
     id="defs7234"><clipPath
       clipPathUnits="userSpaceOnUse"
       id="clipPath7246"><path
         d="M 0,300.129 H 194.942 V 0 H 0 Z"
         id="path7244"
         inkscape:connector-curvature="0" /></clipPath><clipPath
       clipPathUnits="userSpaceOnUse"
       id="clipPath7266"><path
         d="m 82.6514,67.0332 h 16.747 v -6.6953 h -16.747 z"
         id="path7264"
         inkscape:connector-curvature="0" /></clipPath><clipPath
       clipPathUnits="userSpaceOnUse"
       id="clipPath7302"><path
         d="M 25.1455,237.319 H 156.146 V 55.1523 H 25.1455 Z"
         id="path7300"
         inkscape:connector-curvature="0" /></clipPath><clipPath
       clipPathUnits="userSpaceOnUse"
       id="clipPath7358"><path
         d="m 117.707,100.544 h 6.316 V 87.3896 h -6.316 z"
         id="path7356"
         inkscape:connector-curvature="0" /></clipPath><clipPath
       clipPathUnits="userSpaceOnUse"
       id="clipPath7374"><path
         d="m 51.3896,101.014 h 7.2789 V 87.7324 h -7.2789 z"
         id="path7372"
         inkscape:connector-curvature="0" /></clipPath><clipPath
       clipPathUnits="userSpaceOnUse"
       id="clipPath7390"><path
         d="m 84.8506,112.998 h 7.667 v -8.021 h -7.667 z"
         id="path7388"
         inkscape:connector-curvature="0" /></clipPath><clipPath
       clipPathUnits="userSpaceOnUse"
       id="clipPath7482"><path
         d="M 78.4795,90.6133 H 98.0493 V 84.75 H 78.4795 Z"
         id="path7480"
         inkscape:connector-curvature="0" /></clipPath><clipPath
       clipPathUnits="userSpaceOnUse"
       id="clipPath7498"><path
         d="m 73.8101,186.438 h 29.6939 v -5.144 H 73.8101 Z"
         id="path7496"
         inkscape:connector-curvature="0" /></clipPath><clipPath
       clipPathUnits="userSpaceOnUse"
       id="clipPath7514"><path
         d="M 81.5146,181.948 H 100.826 V 178.24 H 81.5146 Z"
         id="path7512"
         inkscape:connector-curvature="0" /></clipPath><clipPath
       clipPathUnits="userSpaceOnUse"
       id="clipPath7534"><path
         d="m 113.305,86.667 h 7.148 v -5.7891 h -7.148 z"
         id="path7532"
         inkscape:connector-curvature="0" /></clipPath><clipPath
       clipPathUnits="userSpaceOnUse"
       id="clipPath7550"><path
         d="m 57.1943,90.1699 h 7.2832 v -6.2558 h -7.2832 z"
         id="path7548"
         inkscape:connector-curvature="0" /></clipPath><clipPath
       clipPathUnits="userSpaceOnUse"
       id="clipPath7566"><path
         d="M 95.0488,178.292 H 152.12 v -42.21 H 95.0488 Z"
         id="path7564"
         inkscape:connector-curvature="0" /></clipPath><clipPath
       clipPathUnits="userSpaceOnUse"
       id="clipPath7582"><path
         d="M 27.6201,183.773 H 81.7476 V 135.554 H 27.6201 Z"
         id="path7580"
         inkscape:connector-curvature="0" /></clipPath><clipPath
       clipPathUnits="userSpaceOnUse"
       id="clipPath7622"><path
         d="M 86.8467,139.779 H 98.3506 V 121.402 H 86.8467 Z"
         id="path7620"
         inkscape:connector-curvature="0" /></clipPath><clipPath
       clipPathUnits="userSpaceOnUse"
       id="clipPath7638"><path
         d="m 68.9399,130.586 h 4.146 v -1.903 h -4.146 z"
         id="path7636"
         inkscape:connector-curvature="0" /></clipPath><clipPath
       clipPathUnits="userSpaceOnUse"
       id="clipPath7654"><path
         d="m 103.898,130.725 h 3.938 v -2.277 h -3.938 z"
         id="path7652"
         inkscape:connector-curvature="0" /></clipPath><clipPath
       clipPathUnits="userSpaceOnUse"
       id="clipPath7694"><path
         d="M 41.2393,178.576 H 71.731 V 149.155 H 41.2393 Z"
         id="path7692"
         inkscape:connector-curvature="0" /></clipPath><clipPath
       clipPathUnits="userSpaceOnUse"
       id="clipPath7710"><path
         d="M 26.5732,180.576 H 57.0649 V 151.155 H 26.5732 Z"
         id="path7708"
         inkscape:connector-curvature="0" /></clipPath><clipPath
       clipPathUnits="userSpaceOnUse"
       id="clipPath7726"><path
         d="m 128.906,176.909 h 30.492 v -29.421 h -30.492 z"
         id="path7724"
         inkscape:connector-curvature="0" /></clipPath><clipPath
       clipPathUnits="userSpaceOnUse"
       id="clipPath7742"><path
         d="m 117.756,180.734 h 30.312 v -29.228 h -30.312 z"
         id="path7740"
         inkscape:connector-curvature="0" /></clipPath></defs><sodipodi:namedview
     pagecolor="#ffffff"
     bordercolor="#666666"
     borderopacity="1"
     objecttolerance="10"
     gridtolerance="10"
     guidetolerance="10"
     inkscape:pageopacity="0"
     inkscape:pageshadow="2"
     inkscape:window-width="640"
     inkscape:window-height="480"
     id="namedview7232"
     showgrid="false"
     inkscape:zoom="0.58974641"
     inkscape:cx="129.96133"
     inkscape:cy="200.086"
     inkscape:window-x="0"
     inkscape:window-y="0"
     inkscape:window-maximized="0"
     inkscape:current-layer="g7238" /><g
     id="g7238"
     inkscape:groupmode="layer"
     inkscape:label="Moods"
     transform="matrix(1.3333333,0,0,-1.3333333,0,400.172)"><g
       id="g7240"><g
         id="g7242"
         clip-path="url(#clipPath7246)"><g
           id="g7248"
           transform="translate(65.6616,44.7178)"><path
             d="m 0,0 c 2.344,-0.082 4.337,-0.969 5.981,-2.661 1.627,-1.693 2.442,-3.72 2.442,-6.079 v -3.589 H 1.44 v 3.589 c 0,0.471 -0.17,0.879 -0.512,1.22 -0.342,0.342 -0.757,0.513 -1.245,0.513 -0.424,0 -0.79,-0.131 -1.099,-0.39 -0.049,-0.034 -0.09,-0.074 -0.122,-0.123 H -1.563 C -1.596,-7.553 -1.628,-7.593 -1.66,-7.642 H -1.685 C -1.718,-7.69 -1.742,-7.731 -1.758,-7.764 v -0.024 h -0.024 c -0.033,-0.049 -0.058,-0.09 -0.073,-0.122 0.015,0.015 0.015,0.008 0,-0.025 -0.034,-0.048 -0.058,-0.089 -0.074,-0.122 L -1.953,-8.13 -1.978,-8.228 -2.002,-8.325 -2.026,-8.398 c 0,-0.017 -0.009,-0.049 -0.025,-0.098 v -0.073 -0.171 -7.739 c 0,-0.489 0.171,-0.904 0.513,-1.246 0.342,-0.326 0.748,-0.488 1.221,-0.488 L 0,-18.237 c 2.344,-0.082 4.337,-0.969 5.981,-2.661 1.627,-1.694 2.442,-3.72 2.442,-6.08 0,-2.409 -0.847,-4.467 -2.539,-6.176 -1.709,-1.709 -3.777,-2.564 -6.201,-2.564 h -8.741 v 7.007 h 8.741 c 0.488,0 0.903,0.171 1.245,0.513 0.342,0.342 0.512,0.748 0.512,1.22 0,0.489 -0.17,0.904 -0.512,1.246 -0.342,0.341 -0.757,0.512 -1.245,0.512 h -0.342 c -2.328,0.098 -4.306,0.985 -5.933,2.661 -1.628,1.693 -2.45,3.711 -2.466,6.055 v 7.788 c 0.016,2.408 0.87,4.459 2.564,6.153 1.692,1.692 3.743,2.546 6.152,2.563 z"
             style="fill:#231f20;fill-opacity:1;fill-rule:nonzero;stroke:none"
             id="path7250"
             inkscape:connector-curvature="0" /></g><g
           id="g7252"
           transform="translate(86.4136,23.0137)"><path
             d="m 0,0 v 12.964 c 0,0.488 -0.171,0.903 -0.513,1.245 -0.341,0.342 -0.749,0.513 -1.22,0.513 -0.489,0 -0.904,-0.171 -1.246,-0.513 -0.341,-0.342 -0.512,-0.757 -0.512,-1.245 V 0 Z m -1.733,21.729 c 2.408,0 4.467,-0.855 6.176,-2.564 1.709,-1.709 2.564,-3.776 2.564,-6.201 V -14.014 H 0 v 7.007 h -3.491 v -7.007 h -7.007 v 26.978 c 0,2.425 0.854,4.492 2.563,6.201 1.709,1.709 3.776,2.564 6.202,2.564"
             style="fill:#231f20;fill-opacity:1;fill-rule:nonzero;stroke:none"
             id="path7254"
             inkscape:connector-curvature="0" /></g><g
           id="g7256"
           transform="translate(106.311,35.2695)"><path
             d="m 0,0 c 0,0.472 -0.171,0.879 -0.513,1.221 -0.341,0.342 -0.749,0.512 -1.22,0.512 h -1.758 v -20.996 h 1.758 c 0.471,0 0.879,0.171 1.22,0.513 0.342,0.342 0.513,0.757 0.513,1.245 z M 7.007,-17.554 C 6.99,-19.963 6.136,-22.014 4.443,-23.706 2.75,-25.399 0.699,-26.254 -1.709,-26.27 h -8.789 V 8.74 h 8.789 C 0.699,8.724 2.75,7.869 4.443,6.177 6.136,4.483 6.99,2.433 7.007,0.024 Z"
             style="fill:#231f20;fill-opacity:1;fill-rule:nonzero;stroke:none"
             id="path7258"
             inkscape:connector-curvature="0" /></g><g
           id="g7260"><g
             id="g7262" /><g
             id="g7274"><g
               clip-path="url(#clipPath7266)"
               id="g7272"
               style="opacity:0.61000103"><g
                 transform="translate(82.6514,65.2129)"
                 id="g7270"><path
                   d="M 0,0 C 0,0 6.979,-5.502 14.665,0.377 21.472,5.583 9.61,-4.98 7.278,-4.874 5.029,-4.771 0,0 0,0"
                   style="fill:#38a690;fill-opacity:1;fill-rule:nonzero;stroke:none"
                   id="path7268"
                   inkscape:connector-curvature="0" /></g></g></g></g><g
           id="g7276"
           transform="translate(157.8555,129.3223)"><path
             d="m 0,0 c -0.798,-4.135 -4.795,-6.842 -8.93,-6.045 -4.135,0.797 -6.842,4.795 -6.046,8.93 l 3.216,16.693 c 0.797,4.135 4.795,6.842 8.93,6.045 4.136,-0.797 6.843,-4.795 6.045,-8.93 z"
             style="fill:#38a690;fill-opacity:1;fill-rule:nonzero;stroke:none"
             id="path7278"
             inkscape:connector-curvature="0" /></g><g
           id="g7280"
           transform="translate(157.8555,129.3223)"><path
             d="m 0,0 c -0.798,-4.135 -4.795,-6.842 -8.93,-6.045 -4.135,0.797 -6.842,4.795 -6.046,8.93 l 3.216,16.693 c 0.797,4.135 4.795,6.842 8.93,6.045 4.136,-0.797 6.843,-4.795 6.045,-8.93 z"
             style="fill:none;stroke:#2c8272;stroke-width:1;stroke-linecap:butt;stroke-linejoin:miter;stroke-miterlimit:10;stroke-dasharray:none;stroke-opacity:1"
             id="path7282"
             inkscape:connector-curvature="0" /></g><g
           id="g7284"
           transform="translate(36.0586,132.3047)"><path
             d="m 0,0 c 0.365,-4.195 -2.739,-7.893 -6.935,-8.258 -4.195,-0.365 -7.892,2.74 -8.257,6.936 l -1.475,16.935 c -0.364,4.196 2.74,7.893 6.936,8.258 4.195,0.365 7.892,-2.74 8.257,-6.935 z"
             style="fill:#38a690;fill-opacity:1;fill-rule:nonzero;stroke:none"
             id="path7286"
             inkscape:connector-curvature="0" /></g><g
           id="g7288"
           transform="translate(36.0586,132.3047)"><path
             d="m 0,0 c 0.365,-4.195 -2.739,-7.893 -6.935,-8.258 -4.195,-0.365 -7.892,2.74 -8.257,6.936 l -1.475,16.935 c -0.364,4.196 2.74,7.893 6.936,8.258 4.195,0.365 7.892,-2.74 8.257,-6.935 z"
             style="fill:none;stroke:#2c8272;stroke-width:1;stroke-linecap:butt;stroke-linejoin:miter;stroke-miterlimit:10;stroke-dasharray:none;stroke-opacity:1"
             id="path7290"
             inkscape:connector-curvature="0" /></g><g
           id="g7292"
           transform="translate(141.9229,82.0088)"><path
             d="m 0,0 c 0,-1.722 -5.855,-13.763 -20.023,-17.862 -10.176,-2.946 -20.922,-8.337 -33.254,-8.337 -12.804,0 -24.652,6.425 -35.042,9.527 -13.552,4.046 -17.522,15.295 -17.522,16.97 l -10.436,92.887 c 0,5.919 5.333,48.824 16.872,50.015 0,0 36.331,11.611 48.333,11.611 11.613,0 46.128,-11.611 46.128,-11.611 C 8.389,133.077 13.723,95.828 13.723,89.909 Z"
             style="fill:#ffffff;fill-opacity:1;fill-rule:nonzero;stroke:none"
             id="path7294"
             inkscape:connector-curvature="0" /></g><g
           id="g7296"><g
             id="g7298" /><g
             id="g7314"><g
               clip-path="url(#clipPath7302)"
               id="g7312"
               style="opacity:0.64999402"><g
                 transform="translate(141.9229,81.875)"
                 id="g7306"><path
                   d="m 0,0 c 0,-1.725 -5.855,-13.776 -20.023,-17.879 -10.176,-2.947 -20.922,-8.344 -33.254,-8.344 -12.804,0 -24.652,6.43 -35.042,9.536 -13.552,4.048 -17.522,15.308 -17.522,16.985 l -10.436,92.967 c 0,5.924 5.333,48.866 16.872,50.058 0,0 36.331,11.621 48.333,11.621 11.613,0 46.128,-11.62 46.128,-11.62 C 8.389,133.192 13.723,95.911 13.723,89.986 Z"
                   style="fill:#37ab9c;fill-opacity:1;fill-rule:nonzero;stroke:none"
                   id="path7304"
                   inkscape:connector-curvature="0" /></g><g
                 transform="translate(141.9229,81.875)"
                 id="g7310"><path
                   d="m 0,0 c 0,-1.725 -5.855,-13.776 -20.023,-17.879 -10.176,-2.947 -20.922,-8.344 -33.254,-8.344 -12.804,0 -24.652,6.43 -35.042,9.536 -13.552,4.048 -17.522,15.308 -17.522,16.985 l -10.436,92.967 c 0,5.924 5.333,48.866 16.872,50.058 0,0 36.331,11.621 48.333,11.621 11.613,0 46.128,-11.62 46.128,-11.62 C 8.389,133.192 13.723,95.911 13.723,89.986 Z"
                   style="fill:none;stroke:#247167;stroke-width:1;stroke-linecap:butt;stroke-linejoin:miter;stroke-miterlimit:10;stroke-dasharray:none;stroke-opacity:1"
                   id="path7308"
                   inkscape:connector-curvature="0" /></g></g></g></g><g
           id="g7316"
           transform="translate(175.3281,205.25)"><path
             d="m 0,0 c 0.293,-6.621 -4.838,-12.226 -11.458,-12.518 l -99.569,-4.401 c -6.62,-0.292 -12.226,4.837 -12.518,11.458 l -6.265,63.031 c -0.293,6.621 10.605,23.266 17,25 55.333,15 113.76,-25.49 115,-32 C 4.857,36.57 0,0 0,0"
             style="fill:#ffffff;fill-opacity:1;fill-rule:nonzero;stroke:none"
             id="path7318"
             inkscape:connector-curvature="0" /></g><g
           id="g7320"
           transform="translate(61.5176,213.8193)"><path
             d="m 0,0 c 0,-6.628 -5.373,-12 -12,-12 h -25 c -6.627,0 -12,5.372 -12,12 0,0 -3.655,27.89 3.333,25.667 7.333,-2.333 2.04,15.666 8.667,15.666 h 25 c 6.627,0 12,-5.372 12,-12 z"
             style="fill:#ffffff;fill-opacity:1;fill-rule:nonzero;stroke:none"
             id="path7322"
             inkscape:connector-curvature="0" /></g><g
           id="g7324"
           transform="translate(41.1855,165.8203)"><path
             d="m 0,0 c -7.667,-0.667 -3.706,-18 -10.334,-18 h -9.333 c -6.627,0 -11.222,19.887 -10.667,23 4.333,24.333 -1.333,28 -1.333,28 0,4.666 2.332,15.666 12,12 h 9.333 c 6.628,0 12,-5.373 12,-12 C 1.666,33 8.229,0.716 0,0"
             style="fill:#ffffff;fill-opacity:1;fill-rule:nonzero;stroke:none"
             id="path7326"
             inkscape:connector-curvature="0" /></g><g
           id="g7328"
           transform="translate(161.1846,154.6523)"><path
             d="M 0,0 C 0,-3.773 -3.06,-6.833 -6.833,-6.833 -7.666,1.168 -12,6.061 -12,9.834 L -13.667,57 c 0,3.774 3.06,6.834 6.834,6.834 C -3.06,63.834 0,60.774 0,57 Z"
             style="fill:#ffffff;fill-opacity:1;fill-rule:nonzero;stroke:none"
             id="path7330"
             inkscape:connector-curvature="0" /></g><g
           id="g7332"
           transform="translate(174.1846,179.8203)"><path
             d="m 0,0 c 1.667,-4 -10.038,-22 -16.666,-22 l -1.667,3.999 c -6.627,0 -12,5.372 -12,12 v 45 c 0,6.628 5.373,12 12,12 H -9 c 6.628,0 12,-5.372 12,-12 z"
             style="fill:#ffffff;fill-opacity:1;fill-rule:nonzero;stroke:none"
             id="path7334"
             inkscape:connector-curvature="0" /></g><g
           id="g7336"
           transform="translate(184.5176,198.4863)"><path
             d="m 0,0 c 0,-6.628 -5.373,-12 -12,-12 h -15.667 c -6.628,0 -12,5.372 -12,12 v 39.333 c 0,6.628 5.372,12 12,12 H -12 c 6.627,0 12,-5.372 12,-12 z"
             style="fill:#ffffff;fill-opacity:1;fill-rule:nonzero;stroke:none"
             id="path7338"
             inkscape:connector-curvature="0" /></g><g
           id="g7340"
           transform="translate(165.5176,194.1523)"><path
             d="m 0,0 c 0,-6.627 -5.373,-12 -12,-12 0,0 -15.049,-3.867 -15.667,0 -1.332,8.334 -12,5.373 -12,12 v 39.334 c 0,6.627 5.372,12 12,12 H -12 c 6.627,0 12,-5.373 12,-12 z"
             style="fill:#ffffff;fill-opacity:1;fill-rule:nonzero;stroke:none"
             id="path7342"
             inkscape:connector-curvature="0" /></g><g
           id="g7344"
           transform="translate(58.5176,248.8193)"><path
             d="m 0,0 c 0,-6.628 -5.373,-12 -12,-12 h -2.333 c -6.628,0 -12,5.372 -12,12 v 3.333 c 0,6.628 5.372,12 12,12 H -12 c 6.627,0 12,-5.372 12,-12 z"
             style="fill:#ffffff;fill-opacity:1;fill-rule:nonzero;stroke:none"
             id="path7346"
             inkscape:connector-curvature="0" /></g><g
           id="g7348"
           transform="translate(54.8516,202.1523)"><path
             d="m 0,0 c 0,-6.627 -5.373,-12 -12,-12 h -3.334 c -6.627,0 -12,5.373 -12,12 v 13.334 c 0,6.627 5.373,12 12,12 H -12 c 6.627,0 12,-5.373 12,-12 z"
             style="fill:#ffffff;fill-opacity:1;fill-rule:nonzero;stroke:none"
             id="path7350"
             inkscape:connector-curvature="0" /></g><g
           id="g7352"><g
             id="g7354" /><g
             id="g7366"><g
               clip-path="url(#clipPath7358)"
               id="g7364"
               style="opacity:0.61000103"><g
                 transform="translate(124.0234,87.3896)"
                 id="g7362"><path
                   d="m 0,0 c 0,0 -1.671,11.16 -4.715,10.853 -3.044,-0.307 -1.212,3.05 1.05,2.146 C -1.402,12.095 0,0 0,0"
                   style="fill:#38a690;fill-opacity:1;fill-rule:nonzero;stroke:none"
                   id="path7360"
                   inkscape:connector-curvature="0" /></g></g></g></g><g
           id="g7368"><g
             id="g7370" /><g
             id="g7382"><g
               clip-path="url(#clipPath7374)"
               id="g7380"
               style="opacity:0.61000103"><g
                 transform="translate(51.3896,87.7324)"
                 id="g7378"><path
                   d="M 0,0 C 0,0 1.612,11.26 5.348,10.963 9.086,10.665 6.714,14.043 3.98,13.122 1.247,12.201 0,0 0,0"
                   style="fill:#38a690;fill-opacity:1;fill-rule:nonzero;stroke:none"
                   id="path7376"
                   inkscape:connector-curvature="0" /></g></g></g></g><g
           id="g7384"><g
             id="g7386" /><g
             id="g7398"><g
               clip-path="url(#clipPath7390)"
               id="g7396"
               style="opacity:0.39999402"><g
                 transform="translate(92.5176,108.9873)"
                 id="g7394"><path
                   d="m 0,0 c 0,-2.216 -0.888,-4.011 -1.982,-4.011 h -3.703 c -1.094,0 -1.982,1.795 -1.982,4.011 0,2.215 0.888,4.011 1.982,4.011 h 3.703 C -0.888,4.011 0,2.215 0,0"
                   style="fill:#37ab9c;fill-opacity:1;fill-rule:nonzero;stroke:none"
                   id="path7392"
                   inkscape:connector-curvature="0" /></g></g></g></g><g
           id="g7400"
           transform="translate(175.3281,204.25)"><path
             d="m 0,0 c 0.293,-6.621 -4.838,-12.226 -11.458,-12.518 l -99.569,-4.401 c -6.62,-0.292 -12.226,4.837 -12.518,11.458 l -6.265,63.031 c -0.293,6.621 10.605,23.266 17,25 55.333,15 113.76,-25.49 115,-32 C 4.857,36.57 0,0 0,0"
             style="fill:#c02d2b;fill-opacity:1;fill-rule:nonzero;stroke:none"
             id="path7402"
             inkscape:connector-curvature="0" /></g><g
           id="g7404"
           transform="translate(175.3281,204.25)"><path
             d="m 0,0 c 0.293,-6.621 -4.838,-12.226 -11.458,-12.518 l -99.569,-4.401 c -6.62,-0.292 -12.226,4.837 -12.518,11.458 l -6.265,63.031 c -0.293,6.621 10.605,23.266 17,25 55.333,15 113.76,-25.49 115,-32 C 4.857,36.57 0,0 0,0 Z"
             style="fill:none;stroke:#c02d2b;stroke-width:1;stroke-linecap:butt;stroke-linejoin:miter;stroke-miterlimit:10;stroke-dasharray:none;stroke-opacity:1"
             id="path7406"
             inkscape:connector-curvature="0" /></g><g
           id="g7408"
           transform="translate(61.5176,212.8193)"><path
             d="m 0,0 c 0,-6.628 -5.373,-12 -12,-12 h -25 c -6.627,0 -12,5.372 -12,12 0,0 -3.655,27.89 3.333,25.667 7.333,-2.333 2.04,15.666 8.667,15.666 h 25 c 6.627,0 12,-5.372 12,-12 z"
             style="fill:#c02d2b;fill-opacity:1;fill-rule:nonzero;stroke:none"
             id="path7410"
             inkscape:connector-curvature="0" /></g><g
           id="g7412"
           transform="translate(61.5176,212.8193)"><path
             d="m 0,0 c 0,-6.628 -5.373,-12 -12,-12 h -25 c -6.627,0 -12,5.372 -12,12 0,0 -3.655,27.89 3.333,25.667 7.333,-2.333 2.04,15.666 8.667,15.666 h 25 c 6.627,0 12,-5.372 12,-12 z"
             style="fill:none;stroke:#c02d2b;stroke-width:1;stroke-linecap:butt;stroke-linejoin:miter;stroke-miterlimit:10;stroke-dasharray:none;stroke-opacity:1"
             id="path7414"
             inkscape:connector-curvature="0" /></g><g
           id="g7416"
           transform="translate(41.1855,164.8203)"><path
             d="m 0,0 c -7.667,-0.667 -3.706,-18 -10.334,-18 h -9.333 c -6.627,0 -11.222,19.887 -10.667,23 4.333,24.333 -1.333,28 -1.333,28 0,4.666 2.332,15.666 12,12 h 9.333 c 6.628,0 12,-5.373 12,-12 C 1.666,33 8.229,0.716 0,0"
             style="fill:#c02d2b;fill-opacity:1;fill-rule:nonzero;stroke:none"
             id="path7418"
             inkscape:connector-curvature="0" /></g><g
           id="g7420"
           transform="translate(41.1855,164.8203)"><path
             d="m 0,0 c -7.667,-0.667 -3.706,-18 -10.334,-18 h -9.333 c -6.627,0 -11.222,19.887 -10.667,23 4.333,24.333 -1.333,28 -1.333,28 0,4.666 2.332,15.666 12,12 h 9.333 c 6.628,0 12,-5.373 12,-12 C 1.666,33 8.229,0.716 0,0 Z"
             style="fill:none;stroke:#c02d2b;stroke-width:1;stroke-linecap:butt;stroke-linejoin:miter;stroke-miterlimit:10;stroke-dasharray:none;stroke-opacity:1"
             id="path7422"
             inkscape:connector-curvature="0" /></g><g
           id="g7424"
           transform="translate(161.1846,153.6523)"><path
             d="M 0,0 C 0,-3.773 -3.06,-6.833 -6.833,-6.833 -7.666,1.168 -12,6.061 -12,9.834 L -13.667,57 c 0,3.774 3.06,6.834 6.834,6.834 C -3.06,63.834 0,60.774 0,57 Z"
             style="fill:#c02d2b;fill-opacity:1;fill-rule:nonzero;stroke:none"
             id="path7426"
             inkscape:connector-curvature="0" /></g><g
           id="g7428"
           transform="translate(161.1846,153.6523)"><path
             d="M 0,0 C 0,-3.773 -3.06,-6.833 -6.833,-6.833 -7.666,1.168 -12,6.061 -12,9.834 L -13.667,57 c 0,3.774 3.06,6.834 6.834,6.834 C -3.06,63.834 0,60.774 0,57 Z"
             style="fill:none;stroke:#c02d2b;stroke-width:1;stroke-linecap:butt;stroke-linejoin:miter;stroke-miterlimit:10;stroke-dasharray:none;stroke-opacity:1"
             id="path7430"
             inkscape:connector-curvature="0" /></g><g
           id="g7432"
           transform="translate(174.1846,178.8203)"><path
             d="m 0,0 c 1.667,-4 -10.038,-22 -16.666,-22 l -1.667,3.999 c -6.627,0 -12,5.372 -12,12 v 45 c 0,6.628 5.373,12 12,12 H -9 c 6.628,0 12,-5.372 12,-12 z"
             style="fill:#c02d2b;fill-opacity:1;fill-rule:nonzero;stroke:none"
             id="path7434"
             inkscape:connector-curvature="0" /></g><g
           id="g7436"
           transform="translate(174.1846,178.8203)"><path
             d="m 0,0 c 1.667,-4 -10.038,-22 -16.666,-22 l -1.667,3.999 c -6.627,0 -12,5.372 -12,12 v 45 c 0,6.628 5.373,12 12,12 H -9 c 6.628,0 12,-5.372 12,-12 z"
             style="fill:none;stroke:#c02d2b;stroke-width:1;stroke-linecap:butt;stroke-linejoin:miter;stroke-miterlimit:10;stroke-dasharray:none;stroke-opacity:1"
             id="path7438"
             inkscape:connector-curvature="0" /></g><g
           id="g7440"
           transform="translate(184.5176,197.4863)"><path
             d="m 0,0 c 0,-6.628 -5.373,-12 -12,-12 h -15.667 c -6.628,0 -12,5.372 -12,12 v 39.333 c 0,6.628 5.372,12 12,12 H -12 c 6.627,0 12,-5.372 12,-12 z"
             style="fill:#c02d2b;fill-opacity:1;fill-rule:nonzero;stroke:none"
             id="path7442"
             inkscape:connector-curvature="0" /></g><g
           id="g7444"
           transform="translate(184.5176,197.4863)"><path
             d="m 0,0 c 0,-6.628 -5.373,-12 -12,-12 h -15.667 c -6.628,0 -12,5.372 -12,12 v 39.333 c 0,6.628 5.372,12 12,12 H -12 c 6.627,0 12,-5.372 12,-12 z"
             style="fill:none;stroke:#c02d2b;stroke-width:1;stroke-linecap:butt;stroke-linejoin:miter;stroke-miterlimit:10;stroke-dasharray:none;stroke-opacity:1"
             id="path7446"
             inkscape:connector-curvature="0" /></g><g
           id="g7448"
           transform="translate(165.5176,193.1523)"><path
             d="m 0,0 c 0,-6.627 -5.373,-12 -12,-12 0,0 -15.049,-3.867 -15.667,0 -1.332,8.334 -12,5.373 -12,12 v 39.334 c 0,6.627 5.372,12 12,12 H -12 c 6.627,0 12,-5.373 12,-12 z"
             style="fill:#c02d2b;fill-opacity:1;fill-rule:nonzero;stroke:none"
             id="path7450"
             inkscape:connector-curvature="0" /></g><g
           id="g7452"
           transform="translate(165.5176,193.1523)"><path
             d="m 0,0 c 0,-6.627 -5.373,-12 -12,-12 0,0 -15.049,-3.867 -15.667,0 -1.332,8.334 -12,5.373 -12,12 v 39.334 c 0,6.627 5.372,12 12,12 H -12 c 6.627,0 12,-5.373 12,-12 z"
             style="fill:none;stroke:#c02d2b;stroke-width:1;stroke-linecap:butt;stroke-linejoin:miter;stroke-miterlimit:10;stroke-dasharray:none;stroke-opacity:1"
             id="path7454"
             inkscape:connector-curvature="0" /></g><g
           id="g7456"
           transform="translate(58.5176,247.8193)"><path
             d="m 0,0 c 0,-6.628 -5.373,-12 -12,-12 h -2.333 c -6.628,0 -12,5.372 -12,12 v 3.333 c 0,6.628 5.372,12 12,12 H -12 c 6.627,0 12,-5.372 12,-12 z"
             style="fill:#c02d2b;fill-opacity:1;fill-rule:nonzero;stroke:none"
             id="path7458"
             inkscape:connector-curvature="0" /></g><g
           id="g7460"
           transform="translate(58.5176,247.8193)"><path
             d="m 0,0 c 0,-6.628 -5.373,-12 -12,-12 h -2.333 c -6.628,0 -12,5.372 -12,12 v 3.333 c 0,6.628 5.372,12 12,12 H -12 c 6.627,0 12,-5.372 12,-12 z"
             style="fill:none;stroke:#c02d2b;stroke-width:1;stroke-linecap:butt;stroke-linejoin:miter;stroke-miterlimit:10;stroke-dasharray:none;stroke-opacity:1"
             id="path7462"
             inkscape:connector-curvature="0" /></g><g
           id="g7464"
           transform="translate(54.8516,201.1523)"><path
             d="m 0,0 c 0,-6.627 -5.373,-12 -12,-12 h -3.334 c -6.627,0 -12,5.373 -12,12 v 13.334 c 0,6.627 5.373,12 12,12 H -12 c 6.627,0 12,-5.373 12,-12 z"
             style="fill:#c02d2b;fill-opacity:1;fill-rule:nonzero;stroke:none"
             id="path7466"
             inkscape:connector-curvature="0" /></g><g
           id="g7468"
           transform="translate(54.8516,201.1523)"><path
             d="m 0,0 c 0,-6.627 -5.373,-12 -12,-12 h -3.334 c -6.627,0 -12,5.373 -12,12 v 13.334 c 0,6.627 5.373,12 12,12 H -12 c 6.627,0 12,-5.373 12,-12 z"
             style="fill:none;stroke:#c02d2b;stroke-width:1;stroke-linecap:butt;stroke-linejoin:miter;stroke-miterlimit:10;stroke-dasharray:none;stroke-opacity:1"
             id="path7470"
             inkscape:connector-curvature="0" /></g><g
           id="g7472"
           transform="translate(15.5176,152.3203)"><path
             d="m 0,0 c 0,0 -6.25,12.5 -5.25,18 1,5.5 4.359,24.418 -0.57,27.834 C -7,50.5 -2.5,57.25 -2.5,57.25 c 0,0 -5,29.5 1.5,29.75 7.583,-3.834 3.202,8.803 8.208,14.416 1.476,1.655 9.542,1.334 9.542,1.334 0,0 2.833,7.791 12.833,8.791 4,14 11.107,20.824 17.75,23.75 4.625,1.25 61.5,13.875 114.847,-31.457 0.57,-4.584 1.153,-8.793 1.153,-8.793 0,0 5.087,-3.891 6.167,-8.291 -2.998,-9.584 7.373,-50.581 -9.75,-53.5 0.25,-3 0.046,-8.444 -1,-11 C 157.002,17.98 148,7.25 148,7.25 l -0.417,18.541 c 0,0 -1.643,5.878 -8.25,7.5 -7.202,1.767 -17.693,-0.242 -19.75,0.5 -2.766,1.245 -7,2.625 -9,4.125 -2.125,-1.125 -11.125,-0.875 -11.125,-0.875 L 47,34.75 c 0,0 -6.167,-0.459 -10.042,7.166 -1.375,-4.5 -7.375,-5.125 -7.375,-5.125 L 29.621,33.579 9.958,33.416 c 0,0 -6.75,-0.75 -9.375,-6.375 C -2.145,21.196 0,0 0,0"
             style="fill:none;stroke:#a82725;stroke-width:1;stroke-linecap:butt;stroke-linejoin:miter;stroke-miterlimit:10;stroke-dasharray:none;stroke-opacity:1"
             id="path7474"
             inkscape:connector-curvature="0" /></g><g
           id="g7476"><g
             id="g7478" /><g
             id="g7490"><g
               clip-path="url(#clipPath7482)"
               id="g7488"
               style="opacity:0.63999897"><g
                 transform="translate(79.6201,84.75)"
                 id="g7486"><path
                   d="m 0,0 c 2.5,1.582 6.666,9 17.583,0.167 2.75,0.916 -2.027,2.989 -2.667,3.25 C 11.75,6.417 1.859,6.438 0.167,4.669 -1.916,2.492 -1.154,0.084 0,0"
                   style="fill:#38a690;fill-opacity:1;fill-rule:nonzero;stroke:none"
                   id="path7484"
                   inkscape:connector-curvature="0" /></g></g></g></g><g
           id="g7492"><g
             id="g7494" /><g
             id="g7506"><g
               clip-path="url(#clipPath7498)"
               id="g7504"
               style="opacity:0.61000103"><g
                 transform="translate(103.2178,186.2383)"
                 id="g7502"><path
                   d="M 0,0 C 2.441,0.806 -11.416,-5.322 -15.439,-4.926 -17.535,-3.604 -31.747,-0.615 -29.074,0.2 -16.287,-3.63 -14.289,-4.705 0,0"
                   style="fill:#38a690;fill-opacity:1;fill-rule:nonzero;stroke:none"
                   id="path7500"
                   inkscape:connector-curvature="0" /></g></g></g></g><g
           id="g7508"><g
             id="g7510" /><g
             id="g7522"><g
               clip-path="url(#clipPath7514)"
               id="g7520"
               style="opacity:0.61000103"><g
                 transform="translate(100.6309,181.916)"
                 id="g7518"><path
                   d="m 0,0 c 2.133,0.49 -13.922,-4.767 -14.979,-3.47 -1.062,1.299 -5.802,1.92 -3.527,2.564 C -12.941,-4.409 -8.893,-2.048 0,0"
                   style="fill:#38a690;fill-opacity:1;fill-rule:nonzero;stroke:none"
                   id="path7516"
                   inkscape:connector-curvature="0" /></g></g></g></g><g
           id="g7524"
           transform="translate(62.0967,89.2383)"><path
             d="m 0,0 c -1.835,1.098 2.924,15.33 44.065,2.372 12.24,-3.855 9.843,-4.792 9.831,-4.853 -0.044,0.061 -0.743,-1.123 -0.643,-0.431 1.759,1.13 -3.198,2.425 -6.098,3.537 C 36.766,3.287 22.451,6.699 15.878,6.813 11.331,6.686 1.941,7.119 0,0"
             style="fill:#38a690;fill-opacity:1;fill-rule:nonzero;stroke:none"
             id="path7526"
             inkscape:connector-curvature="0" /></g><g
           id="g7528"><g
             id="g7530" /><g
             id="g7542"><g
               clip-path="url(#clipPath7534)"
               id="g7540"
               style="opacity:0.64999402"><g
                 transform="translate(120.4531,86.667)"
                 id="g7538"><path
                   d="m 0,0 c 0,0 -1.083,-7 -5.75,-4 -4.335,2.787 2.709,-2.275 3.668,-1.75 C -1.035,-5.177 0,0 0,0"
                   style="fill:#38a690;fill-opacity:1;fill-rule:nonzero;stroke:none"
                   id="path7536"
                   inkscape:connector-curvature="0" /></g></g></g></g><g
           id="g7544"><g
             id="g7546" /><g
             id="g7558"><g
               clip-path="url(#clipPath7550)"
               id="g7556"
               style="opacity:0.64999402"><g
                 transform="translate(57.1982,90.1699)"
                 id="g7554"><path
                   d="M 0,0 C 0,0 -0.346,-7.101 5.531,-5.362 10.991,-3.748 2.002,-6.893 1.047,-6.136 0.006,-5.312 0,0 0,0"
                   style="fill:#38a690;fill-opacity:1;fill-rule:nonzero;stroke:none"
                   id="path7552"
                   inkscape:connector-curvature="0" /></g></g></g></g><g
           id="g7560"><g
             id="g7562" /><g
             id="g7574"><g
               clip-path="url(#clipPath7566)"
               id="g7572"
               style="opacity:0.60000598"><g
                 transform="translate(152.1201,149.2998)"
                 id="g7570"><path
                   d="m 0,0 c 0,-12.146 -2.5,-14.3 -23.75,-12.8 -30,0.448 -27.75,8.855 -27.75,21 0,12.147 -24,16.75 27.625,20.75 C -10.729,29.969 0,12.146 0,0"
                   style="fill:#277365;fill-opacity:1;fill-rule:nonzero;stroke:none"
                   id="path7568"
                   inkscape:connector-curvature="0" /></g></g></g></g><g
           id="g7576"><g
             id="g7578" /><g
             id="g7590"><g
               clip-path="url(#clipPath7582)"
               id="g7588"
               style="opacity:0.60000598"><g
                 transform="translate(76.1201,154)"
                 id="g7586"><path
                   d="m 0,0 c 0,-5.454 1.75,-20.75 -24.75,-17.75 -22,-2.75 -23.75,3.171 -23.75,8.625 0,5.454 20.606,39.923 33.75,38.875 C 19.75,27 0,5.454 0,0"
                   style="fill:#277365;fill-opacity:1;fill-rule:nonzero;stroke:none"
                   id="path7584"
                   inkscape:connector-curvature="0" /></g></g></g></g><g
           id="g7592"
           transform="translate(109.4814,127.5039)"><path
             d="m 0,0 c 0,-2.616 -2.121,-4.736 -4.736,-4.736 h -2.916 c -2.616,0 -4.737,2.12 -4.737,4.736 0,2.616 2.121,4.736 4.737,4.736 h 2.916 C -2.121,4.736 0,2.616 0,0"
             style="fill:#37ab9c;fill-opacity:1;fill-rule:nonzero;stroke:none"
             id="path7594"
             inkscape:connector-curvature="0" /></g><g
           id="g7596"
           transform="translate(109.4814,127.5039)"><path
             d="m 0,0 c 0,-2.616 -2.121,-4.736 -4.736,-4.736 h -2.916 c -2.616,0 -4.737,2.12 -4.737,4.736 0,2.616 2.121,4.736 4.737,4.736 h 2.916 C -2.121,4.736 0,2.616 0,0 Z"
             style="fill:none;stroke:#2c8ca1;stroke-width:1;stroke-linecap:butt;stroke-linejoin:miter;stroke-miterlimit:10;stroke-dasharray:none;stroke-opacity:1"
             id="path7598"
             inkscape:connector-curvature="0" /></g><g
           id="g7600"
           transform="translate(79.2383,127.5039)"><path
             d="m 0,0 c 0,-2.616 -2.121,-4.736 -4.736,-4.736 h -2.915 c -2.616,0 -4.737,2.12 -4.737,4.736 0,2.616 2.121,4.736 4.737,4.736 h 2.915 C -2.121,4.736 0,2.616 0,0"
             style="fill:#37ab9c;fill-opacity:1;fill-rule:nonzero;stroke:none"
             id="path7602"
             inkscape:connector-curvature="0" /></g><g
           id="g7604"
           transform="translate(79.2383,127.5039)"><path
             d="m 0,0 c 0,-2.616 -2.121,-4.736 -4.736,-4.736 h -2.915 c -2.616,0 -4.737,2.12 -4.737,4.736 0,2.616 2.121,4.736 4.737,4.736 h 2.915 C -2.121,4.736 0,2.616 0,0 Z"
             style="fill:none;stroke:#2c8ca1;stroke-width:1;stroke-linecap:butt;stroke-linejoin:miter;stroke-miterlimit:10;stroke-dasharray:none;stroke-opacity:1"
             id="path7606"
             inkscape:connector-curvature="0" /></g><g
           id="g7608"
           transform="translate(102.1943,123.7744)"><path
             d="m 0,0 c 0,-8.345 -27.327,-8.345 -27.327,0 v 25.603 c 0,8.344 5.872,15.109 13.117,15.109 h 1.093 C -5.872,40.712 0,33.947 0,25.603 Z"
             style="fill:#37ab9c;fill-opacity:1;fill-rule:nonzero;stroke:none"
             id="path7610"
             inkscape:connector-curvature="0" /></g><g
           id="g7612"
           transform="translate(102.1943,123.7744)"><path
             d="m 0,0 c 0,-8.345 -27.327,-8.345 -27.327,0 v 25.603 c 0,8.344 5.872,15.109 13.117,15.109 h 1.093 C -5.872,40.712 0,33.947 0,25.603 Z"
             style="fill:none;stroke:#27798c;stroke-width:1;stroke-linecap:butt;stroke-linejoin:miter;stroke-miterlimit:10;stroke-dasharray:none;stroke-opacity:1"
             id="path7614"
             inkscape:connector-curvature="0" /></g><g
           id="g7616"><g
             id="g7618" /><g
             id="g7630"><g
               clip-path="url(#clipPath7622)"
               id="g7628"
               style="opacity:0.33999604"><g
                 transform="translate(98.3506,127.9023)"
                 id="g7626"><path
                   d="m 0,0 c 0,-3.59 -2.91,-6.5 -6.5,-6.5 -3.59,0 -6.412,2.135 -4.25,5 0.822,1.09 4.875,2.395 5.406,3.313 2.922,5.046 2.594,11.125 3.875,9.906 C -0.166,10.48 0,8.09 0,4.5 Z"
                   style="fill:#ffffff;fill-opacity:1;fill-rule:nonzero;stroke:none"
                   id="path7624"
                   inkscape:connector-curvature="0" /></g></g></g></g><g
           id="g7632"><g
             id="g7634" /><g
             id="g7646"><g
               clip-path="url(#clipPath7638)"
               id="g7644"
               style="opacity:0.47999603"><g
                 transform="translate(73.085,129.6465)"
                 id="g7642"><path
                   d="m 0,0 c 0.04,-0.297 -0.907,0.128 -1.816,0.006 -0.909,-0.121 -2.599,-1.632 -2.292,-0.625 0,0 0.866,1.421 1.459,1.5 0.372,0.051 1.432,0.049 1.432,0.049 C -0.624,1.009 -0.079,0.593 0,0"
                   style="fill:#ffffff;fill-opacity:1;fill-rule:nonzero;stroke:none"
                   id="path7640"
                   inkscape:connector-curvature="0" /></g></g></g></g><g
           id="g7648"><g
             id="g7650" /><g
             id="g7662"><g
               clip-path="url(#clipPath7654)"
               id="g7660"
               style="opacity:0.47999603"><g
                 transform="translate(103.9043,130.041)"
                 id="g7658"><path
                   d="m 0,0 c -0.094,-0.264 0.915,-0.045 1.786,-0.317 0.871,-0.272 2.257,-1.947 2.139,-0.976 0,0 -0.591,1.447 -1.159,1.625 -0.357,0.111 -1.4,0.299 -1.4,0.299 C 0.797,0.807 0.186,0.525 0,0"
                   style="fill:#ffffff;fill-opacity:1;fill-rule:nonzero;stroke:none"
                   id="path7656"
                   inkscape:connector-curvature="0" /></g></g></g></g><g
           id="g7664"
           transform="translate(109.1836,173.9873)"><path
             d="m 0,0 c 0,-0.829 -0.672,-1.5 -1.5,-1.5 h -34.667 c -0.828,0 -1.5,0.671 -1.5,1.5 0,0.829 0.672,1.5 1.5,1.5 H -1.5 C -0.672,1.5 0,0.829 0,0"
             style="fill:#3871c1;fill-opacity:1;fill-rule:nonzero;stroke:none"
             id="path7666"
             inkscape:connector-curvature="0" /></g><g
           id="g7668"
           transform="translate(109.1836,173.9873)"><path
             d="m 0,0 c 0,-0.829 -0.672,-1.5 -1.5,-1.5 h -34.667 c -0.828,0 -1.5,0.671 -1.5,1.5 0,0.829 0.672,1.5 1.5,1.5 H -1.5 C -0.672,1.5 0,0.829 0,0 Z"
             style="fill:none;stroke:#2c3792;stroke-width:1;stroke-linecap:butt;stroke-linejoin:miter;stroke-miterlimit:10;stroke-dasharray:none;stroke-opacity:1"
             id="path7670"
             inkscape:connector-curvature="0" /></g><g
           id="g7672"
           transform="translate(163.1826,150.2891)"><path
             d="m 0,0 c 0,-5.598 -5.372,-10.137 -12,-10.137 h -38.667 c -6.627,0 -12,4.539 -12,10.137 v 25.061 c 0,5.597 5.373,10.136 12,10.136 H -12 c 6.628,0 12,-4.539 12,-10.136 z"
             style="fill:#3871c1;fill-opacity:1;fill-rule:nonzero;stroke:none"
             id="path7674"
             inkscape:connector-curvature="0" /></g><g
           id="g7676"
           transform="translate(163.1826,150.2891)"><path
             d="m 0,0 c 0,-5.598 -5.372,-10.137 -12,-10.137 h -38.667 c -6.627,0 -12,4.539 -12,10.137 v 25.061 c 0,5.597 5.373,10.136 12,10.136 H -12 c 6.628,0 12,-4.539 12,-10.136 z"
             style="fill:none;stroke:#2c3792;stroke-width:1;stroke-linecap:butt;stroke-linejoin:miter;stroke-miterlimit:10;stroke-dasharray:none;stroke-opacity:1"
             id="path7678"
             inkscape:connector-curvature="0" /></g><g
           id="g7680"
           transform="translate(78.5176,150.2891)"><path
             d="m 0,0 c 0,-5.598 -5.372,-10.137 -12,-10.137 h -38.667 c -6.627,0 -12,4.539 -12,10.137 v 25.061 c 0,5.597 5.373,10.136 12,10.136 H -12 c 6.628,0 12,-4.539 12,-10.136 z"
             style="fill:#3871c1;fill-opacity:1;fill-rule:nonzero;stroke:none"
             id="path7682"
             inkscape:connector-curvature="0" /></g><g
           id="g7684"
           transform="translate(78.5176,150.2891)"><path
             d="m 0,0 c 0,-5.598 -5.372,-10.137 -12,-10.137 h -38.667 c -6.627,0 -12,4.539 -12,10.137 v 25.061 c 0,5.597 5.373,10.136 12,10.136 H -12 c 6.628,0 12,-4.539 12,-10.136 z"
             style="fill:none;stroke:#2c3792;stroke-width:1;stroke-linecap:butt;stroke-linejoin:miter;stroke-miterlimit:10;stroke-dasharray:none;stroke-opacity:1"
             id="path7686"
             inkscape:connector-curvature="0" /></g><g
           id="g7688"><g
             id="g7690" /><g
             id="g7702"><g
               clip-path="url(#clipPath7694)"
               id="g7700"
               style="opacity:0.25999505"><g
                 transform="translate(47.2246,149.2822)"
                 id="g7698"><path
                   d="m 0,0 c -1.147,-1.082 -6.983,5.103 -5.837,6.187 l 24.358,22.98 c 1.148,1.082 6.985,-5.104 5.836,-6.186 z"
                   style="fill:#50ade5;fill-opacity:1;fill-rule:nonzero;stroke:none"
                   id="path7696"
                   inkscape:connector-curvature="0" /></g></g></g></g><g
           id="g7704"><g
             id="g7706" /><g
             id="g7718"><g
               clip-path="url(#clipPath7710)"
               id="g7716"
               style="opacity:0.25999505"><g
                 transform="translate(32.5586,151.2822)"
                 id="g7714"><path
                   d="m 0,0 c -1.147,-1.082 -6.983,5.103 -5.837,6.187 l 24.358,22.98 c 1.148,1.082 6.985,-5.104 5.836,-6.186 z"
                   style="fill:#50ade5;fill-opacity:1;fill-rule:nonzero;stroke:none"
                   id="path7712"
                   inkscape:connector-curvature="0" /></g></g></g></g><g
           id="g7720"><g
             id="g7722" /><g
             id="g7734"><g
               clip-path="url(#clipPath7726)"
               id="g7732"
               style="opacity:0.25999505"><g
                 transform="translate(134.8916,147.6152)"
                 id="g7730"><path
                   d="m 0,0 c -1.147,-1.082 -6.983,5.104 -5.837,6.186 l 24.358,22.982 c 1.148,1.081 6.985,-5.105 5.836,-6.186 z"
                   style="fill:#50ade5;fill-opacity:1;fill-rule:nonzero;stroke:none"
                   id="path7728"
                   inkscape:connector-curvature="0" /></g></g></g></g><g
           id="g7736"><g
             id="g7738" /><g
             id="g7750"><g
               clip-path="url(#clipPath7742)"
               id="g7748"
               style="opacity:0.25999505"><g
                 transform="translate(123.5576,151.6357)"
                 id="g7746"><path
                   d="m 0,0 c -1.147,-1.081 -6.795,4.904 -5.648,5.987 l 24.357,22.982 c 1.148,1.081 6.797,-4.906 5.648,-5.988 z"
                   style="fill:#50ade5;fill-opacity:1;fill-rule:nonzero;stroke:none"
                   id="path7744"
                   inkscape:connector-curvature="0" /></g></g></g></g><g
           id="g7752"
           transform="translate(152.8125,172.6699)"><path
             d="m 0,0 c -13.038,0.449 -28.188,19.325 -38.594,10.609 -1.854,0.309 -4.194,6.892 -3.474,9.938 0.718,3.045 3.769,4.932 6.817,4.215 l 16.332,-6.254 C -15.872,17.789 3.399,-0.118 0,0"
             style="fill:#c13f2a;fill-opacity:1;fill-rule:nonzero;stroke:none"
             id="path7754"
             inkscape:connector-curvature="0" /></g><g
           id="g7756"
           transform="translate(152.8125,172.6699)"><path
             d="m 0,0 c -13.038,0.449 -28.188,19.325 -38.594,10.609 -1.854,0.309 -4.194,6.892 -3.474,9.938 0.718,3.045 3.769,4.932 6.817,4.215 l 16.332,-6.254 C -15.872,17.789 3.399,-0.118 0,0 Z"
             style="fill:none;stroke:#a32524;stroke-width:1;stroke-linecap:butt;stroke-linejoin:miter;stroke-miterlimit:10;stroke-dasharray:none;stroke-opacity:1"
             id="path7758"
             inkscape:connector-curvature="0" /></g><g
           id="g7760"
           transform="translate(24.8311,172.6152)"><path
             d="m 0,0 c 13.039,0.465 28.167,19.359 38.584,10.655 1.854,0.311 4.186,6.896 3.463,9.941 -0.722,3.046 -3.776,4.928 -6.822,4.206 L 18.899,18.531 C 15.853,17.808 -3.398,-0.121 0,0"
             style="fill:#c13f2a;fill-opacity:1;fill-rule:nonzero;stroke:none"
             id="path7762"
             inkscape:connector-curvature="0" /></g><g
           id="g7764"
           transform="translate(24.8311,172.6152)"><path
             d="m 0,0 c 13.039,0.465 28.167,19.359 38.584,10.655 1.854,0.311 4.186,6.896 3.463,9.941 -0.722,3.046 -3.776,4.928 -6.822,4.206 L 18.899,18.531 C 15.853,17.808 -3.398,-0.121 0,0 Z"
             style="fill:none;stroke:#a32524;stroke-width:1;stroke-linecap:butt;stroke-linejoin:miter;stroke-miterlimit:10;stroke-dasharray:none;stroke-opacity:1"
             id="path7766"
             inkscape:connector-curvature="0" /></g></g></g></g></svg>