<?xml version="1.0" encoding="UTF-8" standalone="no"?>
<!-- Created with Inkscape (http://www.inkscape.org/) -->

<svg
   xmlns:dc="http://purl.org/dc/elements/1.1/"
   xmlns:cc="http://creativecommons.org/ns#"
   xmlns:rdf="http://www.w3.org/1999/02/22-rdf-syntax-ns#"
   xmlns:svg="http://www.w3.org/2000/svg"
   xmlns="http://www.w3.org/2000/svg"
   xmlns:sodipodi="http://sodipodi.sourceforge.net/DTD/sodipodi-0.dtd"
   xmlns:inkscape="http://www.inkscape.org/namespaces/inkscape"
   version="1.1"
   id="svg6104"
   xml:space="preserve"
   viewBox="0 0 500 500"
   sodipodi:docname="tired.svg"
   inkscape:version="0.92.2 5c3e80d, 2017-08-06"><metadata
     id="metadata6110"><rdf:RDF><cc:Work
         rdf:about=""><dc:format>image/svg+xml</dc:format><dc:type
           rdf:resource="http://purl.org/dc/dcmitype/StillImage" /><dc:title></dc:title></cc:Work></rdf:RDF></metadata><defs
     id="defs6108"><clipPath
       clipPathUnits="userSpaceOnUse"
       id="clipPath6120"><path
         d="M 0,300.153 H 194.942 V 0 H 0 Z"
         id="path6118"
         inkscape:connector-curvature="0" /></clipPath><clipPath
       clipPathUnits="userSpaceOnUse"
       id="clipPath6128"><path
         d="m 82.6514,67.0566 h 16.747 v -6.6943 h -16.747 z"
         id="path6126"
         inkscape:connector-curvature="0" /></clipPath><clipPath
       clipPathUnits="userSpaceOnUse"
       id="clipPath6150"><path
         d="M 0,300.153 H 194.942 V 0 H 0 Z"
         id="path6148"
         inkscape:connector-curvature="0" /></clipPath><clipPath
       clipPathUnits="userSpaceOnUse"
       id="clipPath6190"><path
         d="M 25.1455,237.344 H 156.146 V 55.1768 H 25.1455 Z"
         id="path6188"
         inkscape:connector-curvature="0" /></clipPath><clipPath
       clipPathUnits="userSpaceOnUse"
       id="clipPath6246"><path
         d="m 119.303,103.537 h 7.535 V 88.6699 h -7.535 z"
         id="path6244"
         inkscape:connector-curvature="0" /></clipPath><clipPath
       clipPathUnits="userSpaceOnUse"
       id="clipPath6262"><path
         d="m 50.0986,103.547 h 7.4292 V 88.6406 h -7.4292 z"
         id="path6260"
         inkscape:connector-curvature="0" /></clipPath><clipPath
       clipPathUnits="userSpaceOnUse"
       id="clipPath6294"><path
         d="m 84.8506,113.022 h 7.667 v -8.021 h -7.667 z"
         id="path6292"
         inkscape:connector-curvature="0" /></clipPath><clipPath
       clipPathUnits="userSpaceOnUse"
       id="clipPath6318"><path
         d="M 86.8467,139.804 H 98.3506 V 121.427 H 86.8467 Z"
         id="path6316"
         inkscape:connector-curvature="0" /></clipPath><clipPath
       clipPathUnits="userSpaceOnUse"
       id="clipPath6334"><path
         d="m 68.9399,130.61 h 4.1465 v -1.902 h -4.1465 z"
         id="path6332"
         inkscape:connector-curvature="0" /></clipPath><clipPath
       clipPathUnits="userSpaceOnUse"
       id="clipPath6350"><path
         d="m 103.898,130.749 h 3.938 v -2.276 h -3.938 z"
         id="path6348"
         inkscape:connector-curvature="0" /></clipPath><clipPath
       clipPathUnits="userSpaceOnUse"
       id="clipPath6446"><path
         d="M 81.3999,89.5244 H 97.1494 V 85.4561 H 81.3999 Z"
         id="path6444"
         inkscape:connector-curvature="0" /></clipPath><clipPath
       clipPathUnits="userSpaceOnUse"
       id="clipPath6462"><path
         d="m 32.3926,138.778 h 29.9463 v -5.931 H 32.3926 Z"
         id="path6460"
         inkscape:connector-curvature="0" /></clipPath><clipPath
       clipPathUnits="userSpaceOnUse"
       id="clipPath6478"><path
         d="M 57.3477,139.983 H 71.1753 V 130.79 H 57.3477 Z"
         id="path6476"
         inkscape:connector-curvature="0" /></clipPath><clipPath
       clipPathUnits="userSpaceOnUse"
       id="clipPath6494"><path
         d="m 46.2271,143.424 h 22.4423 v -7.76 H 46.2271 Z"
         id="path6492"
         inkscape:connector-curvature="0" /></clipPath><clipPath
       clipPathUnits="userSpaceOnUse"
       id="clipPath6510"><path
         d="m 114.979,137.778 h 29.947 v -5.931 h -29.947 z"
         id="path6508"
         inkscape:connector-curvature="0" /></clipPath><clipPath
       clipPathUnits="userSpaceOnUse"
       id="clipPath6526"><path
         d="m 106.143,138.983 h 13.828 v -9.193 h -13.828 z"
         id="path6524"
         inkscape:connector-curvature="0" /></clipPath><clipPath
       clipPathUnits="userSpaceOnUse"
       id="clipPath6542"><path
         d="m 108.649,142.424 h 22.442 v -7.76 h -22.442 z"
         id="path6540"
         inkscape:connector-curvature="0" /></clipPath><clipPath
       clipPathUnits="userSpaceOnUse"
       id="clipPath6582"><path
         d="M 41.2393,178.6 H 71.731 V 149.18 H 41.2393 Z"
         id="path6580"
         inkscape:connector-curvature="0" /></clipPath><clipPath
       clipPathUnits="userSpaceOnUse"
       id="clipPath6598"><path
         d="M 26.5732,180.6 H 57.0649 V 151.18 H 26.5732 Z"
         id="path6596"
         inkscape:connector-curvature="0" /></clipPath><clipPath
       clipPathUnits="userSpaceOnUse"
       id="clipPath6614"><path
         d="m 128.906,176.934 h 30.491 v -29.421 h -30.491 z"
         id="path6612"
         inkscape:connector-curvature="0" /></clipPath><clipPath
       clipPathUnits="userSpaceOnUse"
       id="clipPath6630"><path
         d="m 117.757,180.759 h 30.311 V 151.53 h -30.311 z"
         id="path6628"
         inkscape:connector-curvature="0" /></clipPath></defs><sodipodi:namedview
     pagecolor="#ffffff"
     bordercolor="#666666"
     borderopacity="1"
     objecttolerance="10"
     gridtolerance="10"
     guidetolerance="10"
     inkscape:pageopacity="0"
     inkscape:pageshadow="2"
     inkscape:window-width="640"
     inkscape:window-height="480"
     id="namedview6106"
     showgrid="false"
     inkscape:zoom="0.58969924"
     inkscape:cx="129.96133"
     inkscape:cy="200.10201"
     inkscape:window-x="0"
     inkscape:window-y="0"
     inkscape:window-maximized="0"
     inkscape:current-layer="g6112" /><g
     id="g6112"
     inkscape:groupmode="layer"
     inkscape:label="Moods"
     transform="matrix(1.3333333,0,0,-1.3333333,0,400.204)"><g
       id="g6114"><g
         id="g6116"
         clip-path="url(#clipPath6120)"><g
           id="g6122"><g
             id="g6124" /><g
             id="g6136"><g
               clip-path="url(#clipPath6128)"
               id="g6134"
               style="opacity:0.61000103"><g
                 transform="translate(82.6514,65.2373)"
                 id="g6132"><path
                   d="M 0,0 C 0,0 6.979,-5.502 14.665,0.377 21.472,5.583 9.61,-4.98 7.278,-4.874 5.029,-4.771 0,0 0,0"
                   style="fill:#38a690;fill-opacity:1;fill-rule:nonzero;stroke:none"
                   id="path6130"
                   inkscape:connector-curvature="0" /></g></g></g></g></g></g><g
       id="g6138"
       transform="translate(63.3276,37.0029)"><path
         d="M 0,0 H -5.298 V -27.979 H -12.28 V 0 h -5.2 V 7.007 H 0 Z"
         style="fill:#231f20;fill-opacity:1;fill-rule:nonzero;stroke:none"
         id="path6140"
         inkscape:connector-curvature="0" /></g><path
       d="m 71.042,9 h -7.007 v 35.034 h 7.007 z"
       style="fill:#231f20;fill-opacity:1;fill-rule:nonzero;stroke:none"
       id="path6142"
       inkscape:connector-curvature="0" /><g
       id="g6144"><g
         id="g6146"
         clip-path="url(#clipPath6150)"><g
           id="g6152"
           transform="translate(82.4194,26.5049)"><path
             d="M 0,0 C 0.488,0.016 0.903,0.187 1.245,0.513 1.587,0.854 1.758,1.27 1.758,1.758 v 7.007 c 0,0.471 -0.171,0.879 -0.513,1.22 C 0.903,10.327 0.488,10.498 0,10.498 H -1.733 V 0 Z M 9.937,-17.48 H 2.954 L 1.758,-9.058 1.733,-8.74 c -0.082,0.488 -0.317,0.903 -0.708,1.245 -0.39,0.342 -0.822,0.513 -1.294,0.513 H -1.733 V -17.48 H -8.74 V 17.505 H 0.049 C 2.441,17.488 4.492,16.634 6.201,14.941 7.894,13.248 8.74,11.197 8.74,8.789 V 1.733 c 0,-2.165 -0.708,-4.061 -2.124,-5.688 1.155,-1.433 1.856,-3.012 2.1,-4.736 L 8.74,-8.887 Z"
             style="fill:#231f20;fill-opacity:1;fill-rule:nonzero;stroke:none"
             id="path6154"
             inkscape:connector-curvature="0" /></g><g
           id="g6156"
           transform="translate(100.437,37.0273)"><path
             d="m 0,0 v -10.498 h 7.007 v -7.007 H 0 v -3.516 h 8.398 v -7.006 H -7.007 V 7.007 H 8.398 V 0 Z"
             style="fill:#231f20;fill-opacity:1;fill-rule:nonzero;stroke:none"
             id="path6158"
             inkscape:connector-curvature="0" /></g><g
           id="g6160"
           transform="translate(121.5068,35.2939)"><path
             d="m 0,0 c 0,0.472 -0.172,0.879 -0.514,1.221 -0.341,0.342 -0.748,0.512 -1.22,0.512 h -1.758 v -20.996 h 1.758 c 0.472,0 0.879,0.171 1.22,0.513 0.342,0.342 0.514,0.757 0.514,1.245 z M 7.006,-17.554 C 6.99,-19.963 6.135,-22.014 4.443,-23.706 2.75,-25.399 0.699,-26.254 -1.709,-26.27 h -8.789 V 8.74 h 8.789 C 0.699,8.724 2.75,7.869 4.443,6.177 6.135,4.483 6.99,2.433 7.006,0.024 Z"
             style="fill:#231f20;fill-opacity:1;fill-rule:nonzero;stroke:none"
             id="path6162"
             inkscape:connector-curvature="0" /></g><g
           id="g6164"
           transform="translate(157.8555,129.3467)"><path
             d="m 0,0 c -0.798,-4.135 -4.795,-6.842 -8.93,-6.045 -4.135,0.797 -6.842,4.795 -6.046,8.93 l 3.216,16.693 c 0.797,4.135 4.795,6.842 8.93,6.045 4.136,-0.797 6.843,-4.795 6.045,-8.93 z"
             style="fill:#38a690;fill-opacity:1;fill-rule:nonzero;stroke:none"
             id="path6166"
             inkscape:connector-curvature="0" /></g><g
           id="g6168"
           transform="translate(157.8555,129.3467)"><path
             d="m 0,0 c -0.798,-4.135 -4.795,-6.842 -8.93,-6.045 -4.135,0.797 -6.842,4.795 -6.046,8.93 l 3.216,16.693 c 0.797,4.135 4.795,6.842 8.93,6.045 4.136,-0.797 6.843,-4.795 6.045,-8.93 z"
             style="fill:none;stroke:#2c8272;stroke-width:1;stroke-linecap:butt;stroke-linejoin:miter;stroke-miterlimit:10;stroke-dasharray:none;stroke-opacity:1"
             id="path6170"
             inkscape:connector-curvature="0" /></g><g
           id="g6172"
           transform="translate(36.0586,132.3291)"><path
             d="m 0,0 c 0.365,-4.195 -2.739,-7.893 -6.935,-8.258 -4.195,-0.365 -7.892,2.74 -8.257,6.936 l -1.475,16.935 c -0.364,4.196 2.74,7.893 6.936,8.258 4.195,0.365 7.892,-2.74 8.257,-6.935 z"
             style="fill:#38a690;fill-opacity:1;fill-rule:nonzero;stroke:none"
             id="path6174"
             inkscape:connector-curvature="0" /></g><g
           id="g6176"
           transform="translate(36.0586,132.3291)"><path
             d="m 0,0 c 0.365,-4.195 -2.739,-7.893 -6.935,-8.258 -4.195,-0.365 -7.892,2.74 -8.257,6.936 l -1.475,16.935 c -0.364,4.196 2.74,7.893 6.936,8.258 4.195,0.365 7.892,-2.74 8.257,-6.935 z"
             style="fill:none;stroke:#2c8272;stroke-width:1;stroke-linecap:butt;stroke-linejoin:miter;stroke-miterlimit:10;stroke-dasharray:none;stroke-opacity:1"
             id="path6178"
             inkscape:connector-curvature="0" /></g><g
           id="g6180"
           transform="translate(141.9229,82.0332)"><path
             d="m 0,0 c 0,-1.722 -5.855,-13.763 -20.023,-17.862 -10.176,-2.946 -20.922,-8.337 -33.254,-8.337 -12.804,0 -24.652,6.425 -35.042,9.527 -13.552,4.046 -17.522,15.295 -17.522,16.97 l -10.436,92.887 c 0,5.919 5.333,48.824 16.872,50.015 0,0 36.331,11.611 48.333,11.611 11.613,0 46.128,-11.611 46.128,-11.611 C 8.389,133.077 13.723,95.828 13.723,89.909 Z"
             style="fill:#ffffff;fill-opacity:1;fill-rule:nonzero;stroke:none"
             id="path6182"
             inkscape:connector-curvature="0" /></g><g
           id="g6184"><g
             id="g6186" /><g
             id="g6202"><g
               clip-path="url(#clipPath6190)"
               id="g6200"
               style="opacity:0.64999402"><g
                 transform="translate(141.9229,81.8994)"
                 id="g6194"><path
                   d="m 0,0 c 0,-1.725 -5.855,-13.776 -20.023,-17.879 -10.176,-2.947 -20.922,-8.344 -33.254,-8.344 -12.804,0 -24.652,6.43 -35.042,9.536 -13.552,4.048 -17.522,15.308 -17.522,16.985 l -10.436,92.967 c 0,5.924 5.333,48.866 16.872,50.058 0,0 36.331,11.621 48.333,11.621 11.613,0 46.128,-11.62 46.128,-11.62 C 8.389,133.192 13.723,95.911 13.723,89.986 Z"
                   style="fill:#37ab9c;fill-opacity:1;fill-rule:nonzero;stroke:none"
                   id="path6192"
                   inkscape:connector-curvature="0" /></g><g
                 transform="translate(141.9229,81.8994)"
                 id="g6198"><path
                   d="m 0,0 c 0,-1.725 -5.855,-13.776 -20.023,-17.879 -10.176,-2.947 -20.922,-8.344 -33.254,-8.344 -12.804,0 -24.652,6.43 -35.042,9.536 -13.552,4.048 -17.522,15.308 -17.522,16.985 l -10.436,92.967 c 0,5.924 5.333,48.866 16.872,50.058 0,0 36.331,11.621 48.333,11.621 11.613,0 46.128,-11.62 46.128,-11.62 C 8.389,133.192 13.723,95.911 13.723,89.986 Z"
                   style="fill:none;stroke:#247167;stroke-width:1;stroke-linecap:butt;stroke-linejoin:miter;stroke-miterlimit:10;stroke-dasharray:none;stroke-opacity:1"
                   id="path6196"
                   inkscape:connector-curvature="0" /></g></g></g></g><g
           id="g6204"
           transform="translate(175.3281,205.2744)"><path
             d="m 0,0 c 0.293,-6.621 -4.838,-12.226 -11.458,-12.518 l -99.569,-4.401 c -6.62,-0.292 -12.226,4.837 -12.518,11.458 l -6.265,63.031 c -0.293,6.621 10.605,23.266 17,25 55.333,15 113.76,-25.49 115,-32 C 4.857,36.57 0,0 0,0"
             style="fill:#ffffff;fill-opacity:1;fill-rule:nonzero;stroke:none"
             id="path6206"
             inkscape:connector-curvature="0" /></g><g
           id="g6208"
           transform="translate(61.5176,213.8438)"><path
             d="m 0,0 c 0,-6.628 -5.373,-12 -12,-12 h -25 c -6.627,0 -12,5.372 -12,12 0,0 -3.655,27.89 3.333,25.667 7.333,-2.333 2.04,15.666 8.667,15.666 h 25 c 6.627,0 12,-5.372 12,-12 z"
             style="fill:#ffffff;fill-opacity:1;fill-rule:nonzero;stroke:none"
             id="path6210"
             inkscape:connector-curvature="0" /></g><g
           id="g6212"
           transform="translate(41.1855,165.8447)"><path
             d="m 0,0 c -7.667,-0.667 -3.706,-18 -10.334,-18 h -9.333 c -6.627,0 -11.222,19.887 -10.667,23 4.333,24.333 -1.333,28 -1.333,28 0,4.666 2.332,15.666 12,12 h 9.333 c 6.628,0 12,-5.373 12,-12 C 1.666,33 8.229,0.716 0,0"
             style="fill:#ffffff;fill-opacity:1;fill-rule:nonzero;stroke:none"
             id="path6214"
             inkscape:connector-curvature="0" /></g><g
           id="g6216"
           transform="translate(161.1846,154.6768)"><path
             d="M 0,0 C 0,-3.773 -3.06,-6.833 -6.833,-6.833 -7.666,1.168 -12,6.061 -12,9.834 L -13.667,57 c 0,3.774 3.06,6.834 6.834,6.834 C -3.06,63.834 0,60.774 0,57 Z"
             style="fill:#ffffff;fill-opacity:1;fill-rule:nonzero;stroke:none"
             id="path6218"
             inkscape:connector-curvature="0" /></g><g
           id="g6220"
           transform="translate(174.1846,179.8447)"><path
             d="m 0,0 c 1.667,-4 -10.038,-22 -16.666,-22 l -1.667,3.999 c -6.627,0 -12,5.372 -12,12 v 45 c 0,6.628 5.373,12 12,12 H -9 c 6.628,0 12,-5.372 12,-12 z"
             style="fill:#ffffff;fill-opacity:1;fill-rule:nonzero;stroke:none"
             id="path6222"
             inkscape:connector-curvature="0" /></g><g
           id="g6224"
           transform="translate(184.5176,198.5107)"><path
             d="m 0,0 c 0,-6.628 -5.373,-12 -12,-12 h -15.667 c -6.628,0 -12,5.372 -12,12 v 39.333 c 0,6.628 5.372,12 12,12 H -12 c 6.627,0 12,-5.372 12,-12 z"
             style="fill:#ffffff;fill-opacity:1;fill-rule:nonzero;stroke:none"
             id="path6226"
             inkscape:connector-curvature="0" /></g><g
           id="g6228"
           transform="translate(165.5176,194.1768)"><path
             d="m 0,0 c 0,-6.627 -5.373,-12 -12,-12 0,0 -15.049,-3.867 -15.667,0 -1.332,8.334 -12,5.373 -12,12 v 39.334 c 0,6.627 5.372,12 12,12 H -12 c 6.627,0 12,-5.373 12,-12 z"
             style="fill:#ffffff;fill-opacity:1;fill-rule:nonzero;stroke:none"
             id="path6230"
             inkscape:connector-curvature="0" /></g><g
           id="g6232"
           transform="translate(58.5176,248.8438)"><path
             d="m 0,0 c 0,-6.628 -5.373,-12 -12,-12 h -2.333 c -6.628,0 -12,5.372 -12,12 v 3.333 c 0,6.628 5.372,12 12,12 H -12 c 6.627,0 12,-5.372 12,-12 z"
             style="fill:#ffffff;fill-opacity:1;fill-rule:nonzero;stroke:none"
             id="path6234"
             inkscape:connector-curvature="0" /></g><g
           id="g6236"
           transform="translate(54.8516,202.1768)"><path
             d="m 0,0 c 0,-6.627 -5.373,-12 -12,-12 h -3.334 c -6.627,0 -12,5.373 -12,12 v 13.334 c 0,6.627 5.373,12 12,12 H -12 c 6.627,0 12,-5.373 12,-12 z"
             style="fill:#ffffff;fill-opacity:1;fill-rule:nonzero;stroke:none"
             id="path6238"
             inkscape:connector-curvature="0" /></g><g
           id="g6240"><g
             id="g6242" /><g
             id="g6254"><g
               clip-path="url(#clipPath6246)"
               id="g6252"
               style="opacity:0.61000103"><g
                 transform="translate(126.8379,88.6699)"
                 id="g6250"><path
                   d="m 0,0 c 0,0 -1.148,12.468 -5.396,12.333 -4.248,-0.135 -1.359,3.459 1.678,2.306 C -0.68,13.485 0,0 0,0"
                   style="fill:#38a690;fill-opacity:1;fill-rule:nonzero;stroke:none"
                   id="path6248"
                   inkscape:connector-curvature="0" /></g></g></g></g><g
           id="g6256"><g
             id="g6258" /><g
             id="g6270"><g
               clip-path="url(#clipPath6262)"
               id="g6268"
               style="opacity:0.61000103"><g
                 transform="translate(50.0986,88.6406)"
                 id="g6266"><path
                   d="M 0,0 C 0,0 1.049,12.477 5.297,12.376 9.546,12.274 6.63,15.845 3.602,14.668 0.572,13.49 0,0 0,0"
                   style="fill:#38a690;fill-opacity:1;fill-rule:nonzero;stroke:none"
                   id="path6264"
                   inkscape:connector-curvature="0" /></g></g></g></g><g
           id="g6272"
           transform="translate(109.4814,127.5283)"><path
             d="m 0,0 c 0,-2.616 -2.121,-4.736 -4.736,-4.736 h -2.916 c -2.616,0 -4.737,2.12 -4.737,4.736 0,2.616 2.121,4.736 4.737,4.736 h 2.916 C -2.121,4.736 0,2.616 0,0"
             style="fill:#37ab9c;fill-opacity:1;fill-rule:nonzero;stroke:none"
             id="path6274"
             inkscape:connector-curvature="0" /></g><g
           id="g6276"
           transform="translate(109.4814,127.5283)"><path
             d="m 0,0 c 0,-2.616 -2.121,-4.736 -4.736,-4.736 h -2.916 c -2.616,0 -4.737,2.12 -4.737,4.736 0,2.616 2.121,4.736 4.737,4.736 h 2.916 C -2.121,4.736 0,2.616 0,0 Z"
             style="fill:none;stroke:#2c8ca1;stroke-width:1;stroke-linecap:butt;stroke-linejoin:miter;stroke-miterlimit:10;stroke-dasharray:none;stroke-opacity:1"
             id="path6278"
             inkscape:connector-curvature="0" /></g><g
           id="g6280"
           transform="translate(79.2383,127.5283)"><path
             d="m 0,0 c 0,-2.616 -2.121,-4.736 -4.736,-4.736 h -2.915 c -2.616,0 -4.737,2.12 -4.737,4.736 0,2.616 2.121,4.736 4.737,4.736 h 2.915 C -2.121,4.736 0,2.616 0,0"
             style="fill:#37ab9c;fill-opacity:1;fill-rule:nonzero;stroke:none"
             id="path6282"
             inkscape:connector-curvature="0" /></g><g
           id="g6284"
           transform="translate(79.2383,127.5283)"><path
             d="m 0,0 c 0,-2.616 -2.121,-4.736 -4.736,-4.736 h -2.915 c -2.616,0 -4.737,2.12 -4.737,4.736 0,2.616 2.121,4.736 4.737,4.736 h 2.915 C -2.121,4.736 0,2.616 0,0 Z"
             style="fill:none;stroke:#2c8ca1;stroke-width:1;stroke-linecap:butt;stroke-linejoin:miter;stroke-miterlimit:10;stroke-dasharray:none;stroke-opacity:1"
             id="path6286"
             inkscape:connector-curvature="0" /></g><g
           id="g6288"><g
             id="g6290" /><g
             id="g6302"><g
               clip-path="url(#clipPath6294)"
               id="g6300"
               style="opacity:0.39999402"><g
                 transform="translate(92.5176,109.0117)"
                 id="g6298"><path
                   d="m 0,0 c 0,-2.216 -0.888,-4.011 -1.982,-4.011 h -3.703 c -1.094,0 -1.982,1.795 -1.982,4.011 0,2.215 0.888,4.011 1.982,4.011 h 3.703 C -0.888,4.011 0,2.215 0,0"
                   style="fill:#37ab9c;fill-opacity:1;fill-rule:nonzero;stroke:none"
                   id="path6296"
                   inkscape:connector-curvature="0" /></g></g></g></g><g
           id="g6304"
           transform="translate(102.1943,123.7988)"><path
             d="m 0,0 c 0,-8.345 -27.327,-8.345 -27.327,0 v 25.603 c 0,8.344 5.872,15.109 13.117,15.109 h 1.093 C -5.872,40.712 0,33.947 0,25.603 Z"
             style="fill:#37ab9c;fill-opacity:1;fill-rule:nonzero;stroke:none"
             id="path6306"
             inkscape:connector-curvature="0" /></g><g
           id="g6308"
           transform="translate(102.1943,123.7988)"><path
             d="m 0,0 c 0,-8.345 -27.327,-8.345 -27.327,0 v 25.603 c 0,8.344 5.872,15.109 13.117,15.109 h 1.093 C -5.872,40.712 0,33.947 0,25.603 Z"
             style="fill:none;stroke:#27798c;stroke-width:1;stroke-linecap:butt;stroke-linejoin:miter;stroke-miterlimit:10;stroke-dasharray:none;stroke-opacity:1"
             id="path6310"
             inkscape:connector-curvature="0" /></g><g
           id="g6312"><g
             id="g6314" /><g
             id="g6326"><g
               clip-path="url(#clipPath6318)"
               id="g6324"
               style="opacity:0.33999604"><g
                 transform="translate(98.3506,127.9268)"
                 id="g6322"><path
                   d="m 0,0 c 0,-3.59 -2.91,-6.5 -6.5,-6.5 -3.59,0 -6.412,2.135 -4.25,5 0.822,1.09 4.875,2.395 5.406,3.313 2.922,5.046 2.594,11.125 3.875,9.906 C -0.166,10.48 0,8.09 0,4.5 Z"
                   style="fill:#ffffff;fill-opacity:1;fill-rule:nonzero;stroke:none"
                   id="path6320"
                   inkscape:connector-curvature="0" /></g></g></g></g><g
           id="g6328"><g
             id="g6330" /><g
             id="g6342"><g
               clip-path="url(#clipPath6334)"
               id="g6340"
               style="opacity:0.47999603"><g
                 transform="translate(73.085,129.6709)"
                 id="g6338"><path
                   d="m 0,0 c 0.04,-0.297 -0.907,0.128 -1.816,0.006 -0.909,-0.121 -2.599,-1.632 -2.292,-0.625 0,0 0.866,1.421 1.459,1.5 0.372,0.051 1.432,0.049 1.432,0.049 C -0.624,1.009 -0.079,0.593 0,0"
                   style="fill:#ffffff;fill-opacity:1;fill-rule:nonzero;stroke:none"
                   id="path6336"
                   inkscape:connector-curvature="0" /></g></g></g></g><g
           id="g6344"><g
             id="g6346" /><g
             id="g6358"><g
               clip-path="url(#clipPath6350)"
               id="g6356"
               style="opacity:0.47999603"><g
                 transform="translate(103.9043,130.0654)"
                 id="g6354"><path
                   d="m 0,0 c -0.094,-0.264 0.915,-0.045 1.786,-0.317 0.871,-0.272 2.257,-1.947 2.139,-0.976 0,0 -0.591,1.447 -1.159,1.625 -0.357,0.111 -1.4,0.299 -1.4,0.299 C 0.797,0.807 0.186,0.525 0,0"
                   style="fill:#ffffff;fill-opacity:1;fill-rule:nonzero;stroke:none"
                   id="path6352"
                   inkscape:connector-curvature="0" /></g></g></g></g><g
           id="g6360"
           transform="translate(175.3281,204.2744)"><path
             d="m 0,0 c 0.293,-6.621 -4.838,-12.226 -11.458,-12.518 l -99.569,-4.401 c -6.62,-0.292 -12.226,4.837 -12.518,11.458 l -6.265,63.031 c -0.293,6.621 10.605,23.266 17,25 55.333,15 113.76,-25.49 115,-32 C 4.857,36.57 0,0 0,0"
             style="fill:#c02d2b;fill-opacity:1;fill-rule:nonzero;stroke:none"
             id="path6362"
             inkscape:connector-curvature="0" /></g><g
           id="g6364"
           transform="translate(175.3281,204.2744)"><path
             d="m 0,0 c 0.293,-6.621 -4.838,-12.226 -11.458,-12.518 l -99.569,-4.401 c -6.62,-0.292 -12.226,4.837 -12.518,11.458 l -6.265,63.031 c -0.293,6.621 10.605,23.266 17,25 55.333,15 113.76,-25.49 115,-32 C 4.857,36.57 0,0 0,0 Z"
             style="fill:none;stroke:#c02d2b;stroke-width:1;stroke-linecap:butt;stroke-linejoin:miter;stroke-miterlimit:10;stroke-dasharray:none;stroke-opacity:1"
             id="path6366"
             inkscape:connector-curvature="0" /></g><g
           id="g6368"
           transform="translate(61.5176,212.8438)"><path
             d="m 0,0 c 0,-6.628 -5.373,-12 -12,-12 h -25 c -6.627,0 -12,5.372 -12,12 0,0 -3.655,27.89 3.333,25.667 7.333,-2.333 2.04,15.666 8.667,15.666 h 25 c 6.627,0 12,-5.372 12,-12 z"
             style="fill:#c02d2b;fill-opacity:1;fill-rule:nonzero;stroke:none"
             id="path6370"
             inkscape:connector-curvature="0" /></g><g
           id="g6372"
           transform="translate(61.5176,212.8438)"><path
             d="m 0,0 c 0,-6.628 -5.373,-12 -12,-12 h -25 c -6.627,0 -12,5.372 -12,12 0,0 -3.655,27.89 3.333,25.667 7.333,-2.333 2.04,15.666 8.667,15.666 h 25 c 6.627,0 12,-5.372 12,-12 z"
             style="fill:none;stroke:#c02d2b;stroke-width:1;stroke-linecap:butt;stroke-linejoin:miter;stroke-miterlimit:10;stroke-dasharray:none;stroke-opacity:1"
             id="path6374"
             inkscape:connector-curvature="0" /></g><g
           id="g6376"
           transform="translate(41.1855,164.8447)"><path
             d="m 0,0 c -7.667,-0.667 -3.706,-18 -10.334,-18 h -9.333 c -6.627,0 -11.222,19.887 -10.667,23 4.333,24.333 -1.333,28 -1.333,28 0,4.666 2.332,15.666 12,12 h 9.333 c 6.628,0 12,-5.373 12,-12 C 1.666,33 8.229,0.716 0,0"
             style="fill:#c02d2b;fill-opacity:1;fill-rule:nonzero;stroke:none"
             id="path6378"
             inkscape:connector-curvature="0" /></g><g
           id="g6380"
           transform="translate(41.1855,164.8447)"><path
             d="m 0,0 c -7.667,-0.667 -3.706,-18 -10.334,-18 h -9.333 c -6.627,0 -11.222,19.887 -10.667,23 4.333,24.333 -1.333,28 -1.333,28 0,4.666 2.332,15.666 12,12 h 9.333 c 6.628,0 12,-5.373 12,-12 C 1.666,33 8.229,0.716 0,0 Z"
             style="fill:none;stroke:#c02d2b;stroke-width:1;stroke-linecap:butt;stroke-linejoin:miter;stroke-miterlimit:10;stroke-dasharray:none;stroke-opacity:1"
             id="path6382"
             inkscape:connector-curvature="0" /></g><g
           id="g6384"
           transform="translate(161.1846,153.6768)"><path
             d="M 0,0 C 0,-3.773 -3.06,-6.833 -6.833,-6.833 -7.666,1.168 -12,6.061 -12,9.834 L -13.667,57 c 0,3.774 3.06,6.834 6.834,6.834 C -3.06,63.834 0,60.774 0,57 Z"
             style="fill:#c02d2b;fill-opacity:1;fill-rule:nonzero;stroke:none"
             id="path6386"
             inkscape:connector-curvature="0" /></g><g
           id="g6388"
           transform="translate(161.1846,153.6768)"><path
             d="M 0,0 C 0,-3.773 -3.06,-6.833 -6.833,-6.833 -7.666,1.168 -12,6.061 -12,9.834 L -13.667,57 c 0,3.774 3.06,6.834 6.834,6.834 C -3.06,63.834 0,60.774 0,57 Z"
             style="fill:none;stroke:#c02d2b;stroke-width:1;stroke-linecap:butt;stroke-linejoin:miter;stroke-miterlimit:10;stroke-dasharray:none;stroke-opacity:1"
             id="path6390"
             inkscape:connector-curvature="0" /></g><g
           id="g6392"
           transform="translate(174.1846,178.8447)"><path
             d="m 0,0 c 1.667,-4 -10.038,-22 -16.666,-22 l -1.667,3.999 c -6.627,0 -12,5.372 -12,12 v 45 c 0,6.628 5.373,12 12,12 H -9 c 6.628,0 12,-5.372 12,-12 z"
             style="fill:#c02d2b;fill-opacity:1;fill-rule:nonzero;stroke:none"
             id="path6394"
             inkscape:connector-curvature="0" /></g><g
           id="g6396"
           transform="translate(174.1846,178.8447)"><path
             d="m 0,0 c 1.667,-4 -10.038,-22 -16.666,-22 l -1.667,3.999 c -6.627,0 -12,5.372 -12,12 v 45 c 0,6.628 5.373,12 12,12 H -9 c 6.628,0 12,-5.372 12,-12 z"
             style="fill:none;stroke:#c02d2b;stroke-width:1;stroke-linecap:butt;stroke-linejoin:miter;stroke-miterlimit:10;stroke-dasharray:none;stroke-opacity:1"
             id="path6398"
             inkscape:connector-curvature="0" /></g><g
           id="g6400"
           transform="translate(184.5176,197.5107)"><path
             d="m 0,0 c 0,-6.628 -5.373,-12 -12,-12 h -15.667 c -6.628,0 -12,5.372 -12,12 v 39.333 c 0,6.628 5.372,12 12,12 H -12 c 6.627,0 12,-5.372 12,-12 z"
             style="fill:#c02d2b;fill-opacity:1;fill-rule:nonzero;stroke:none"
             id="path6402"
             inkscape:connector-curvature="0" /></g><g
           id="g6404"
           transform="translate(184.5176,197.5107)"><path
             d="m 0,0 c 0,-6.628 -5.373,-12 -12,-12 h -15.667 c -6.628,0 -12,5.372 -12,12 v 39.333 c 0,6.628 5.372,12 12,12 H -12 c 6.627,0 12,-5.372 12,-12 z"
             style="fill:none;stroke:#c02d2b;stroke-width:1;stroke-linecap:butt;stroke-linejoin:miter;stroke-miterlimit:10;stroke-dasharray:none;stroke-opacity:1"
             id="path6406"
             inkscape:connector-curvature="0" /></g><g
           id="g6408"
           transform="translate(165.5176,193.1768)"><path
             d="m 0,0 c 0,-6.627 -5.373,-12 -12,-12 0,0 -15.049,-3.867 -15.667,0 -1.332,8.334 -12,5.373 -12,12 v 39.334 c 0,6.627 5.372,12 12,12 H -12 c 6.627,0 12,-5.373 12,-12 z"
             style="fill:#c02d2b;fill-opacity:1;fill-rule:nonzero;stroke:none"
             id="path6410"
             inkscape:connector-curvature="0" /></g><g
           id="g6412"
           transform="translate(165.5176,193.1768)"><path
             d="m 0,0 c 0,-6.627 -5.373,-12 -12,-12 0,0 -15.049,-3.867 -15.667,0 -1.332,8.334 -12,5.373 -12,12 v 39.334 c 0,6.627 5.372,12 12,12 H -12 c 6.627,0 12,-5.373 12,-12 z"
             style="fill:none;stroke:#c02d2b;stroke-width:1;stroke-linecap:butt;stroke-linejoin:miter;stroke-miterlimit:10;stroke-dasharray:none;stroke-opacity:1"
             id="path6414"
             inkscape:connector-curvature="0" /></g><g
           id="g6416"
           transform="translate(58.5176,247.8438)"><path
             d="m 0,0 c 0,-6.628 -5.373,-12 -12,-12 h -2.333 c -6.628,0 -12,5.372 -12,12 v 3.333 c 0,6.628 5.372,12 12,12 H -12 c 6.627,0 12,-5.372 12,-12 z"
             style="fill:#c02d2b;fill-opacity:1;fill-rule:nonzero;stroke:none"
             id="path6418"
             inkscape:connector-curvature="0" /></g><g
           id="g6420"
           transform="translate(58.5176,247.8438)"><path
             d="m 0,0 c 0,-6.628 -5.373,-12 -12,-12 h -2.333 c -6.628,0 -12,5.372 -12,12 v 3.333 c 0,6.628 5.372,12 12,12 H -12 c 6.627,0 12,-5.372 12,-12 z"
             style="fill:none;stroke:#c02d2b;stroke-width:1;stroke-linecap:butt;stroke-linejoin:miter;stroke-miterlimit:10;stroke-dasharray:none;stroke-opacity:1"
             id="path6422"
             inkscape:connector-curvature="0" /></g><g
           id="g6424"
           transform="translate(54.8516,201.1768)"><path
             d="m 0,0 c 0,-6.627 -5.373,-12 -12,-12 h -3.334 c -6.627,0 -12,5.373 -12,12 v 13.334 c 0,6.627 5.373,12 12,12 H -12 c 6.627,0 12,-5.373 12,-12 z"
             style="fill:#c02d2b;fill-opacity:1;fill-rule:nonzero;stroke:none"
             id="path6426"
             inkscape:connector-curvature="0" /></g><g
           id="g6428"
           transform="translate(54.8516,201.1768)"><path
             d="m 0,0 c 0,-6.627 -5.373,-12 -12,-12 h -3.334 c -6.627,0 -12,5.373 -12,12 v 13.334 c 0,6.627 5.373,12 12,12 H -12 c 6.627,0 12,-5.373 12,-12 z"
             style="fill:none;stroke:#c02d2b;stroke-width:1;stroke-linecap:butt;stroke-linejoin:miter;stroke-miterlimit:10;stroke-dasharray:none;stroke-opacity:1"
             id="path6430"
             inkscape:connector-curvature="0" /></g><g
           id="g6432"
           transform="translate(15.5176,152.3447)"><path
             d="m 0,0 c 0,0 -6.25,12.5 -5.25,18 1,5.5 4.359,24.418 -0.57,27.834 C -7,50.5 -2.5,57.25 -2.5,57.25 c 0,0 -5,29.5 1.5,29.75 7.583,-3.834 3.202,8.803 8.208,14.416 1.476,1.655 9.542,1.334 9.542,1.334 0,0 2.833,7.791 12.833,8.791 4,14 11.107,20.824 17.75,23.75 4.625,1.25 61.5,13.875 114.847,-31.457 0.57,-4.584 1.153,-8.793 1.153,-8.793 0,0 5.087,-3.891 6.167,-8.291 -2.998,-9.584 7.373,-50.581 -9.75,-53.5 0.25,-3 0.046,-8.444 -1,-11 C 157.002,17.98 148,7.25 148,7.25 l -0.417,18.541 c 0,0 -1.643,5.878 -8.25,7.5 -7.202,1.767 -17.693,-0.242 -19.75,0.5 -2.766,1.245 -7,2.625 -9,4.125 -2.125,-1.125 -11.125,-0.875 -11.125,-0.875 L 47,34.75 c 0,0 -6.167,-0.459 -10.042,7.166 -1.375,-4.5 -7.375,-5.125 -7.375,-5.125 L 29.621,33.579 9.958,33.416 c 0,0 -6.75,-0.75 -9.375,-6.375 C -2.145,21.196 0,0 0,0"
             style="fill:none;stroke:#a82725;stroke-width:1;stroke-linecap:butt;stroke-linejoin:miter;stroke-miterlimit:10;stroke-dasharray:none;stroke-opacity:1"
             id="path6434"
             inkscape:connector-curvature="0" /></g><g
           id="g6436"
           transform="translate(56.8906,94.5029)"><path
             d="m 0,0 c 0,0 -0.786,0.795 -0.327,1.256 0.257,0.26 0.906,0.414 2.306,0.265 4.831,0.281 19.663,1.316 26.625,-1.375 2.75,-1.062 25.041,-0.68 31.229,0.297 5.459,0.703 0.99,1.016 1.021,1.703"
             style="fill:none;stroke:#38a690;stroke-width:1;stroke-linecap:butt;stroke-linejoin:miter;stroke-miterlimit:10;stroke-dasharray:none;stroke-opacity:1"
             id="path6438"
             inkscape:connector-curvature="0" /></g><g
           id="g6440"><g
             id="g6442" /><g
             id="g6454"><g
               clip-path="url(#clipPath6446)"
               id="g6452"
               style="opacity:0.63999897"><g
                 transform="translate(81.8701,89.5244)"
                 id="g6450"><path
                   d="M 0,0 C 0,0 1.75,-2.834 12.25,-3.167 22.75,-3.5 2.75,-4.916 0.667,-3.333 -1.416,-1.75 0,0 0,0"
                   style="fill:#38a690;fill-opacity:1;fill-rule:nonzero;stroke:none"
                   id="path6448"
                   inkscape:connector-curvature="0" /></g></g></g></g><g
           id="g6456"><g
             id="g6458" /><g
             id="g6470"><g
               clip-path="url(#clipPath6462)"
               id="g6468"
               style="opacity:0.55999798"><g
                 transform="translate(62.3389,135.6826)"
                 id="g6466"><path
                   d="M 0,0 C 0,0 -13.199,-4.462 -29.6,3.096 -33.166,0.045 -8.127,-4.641 -4.314,-2.115 -0.029,-1.618 0,0 0,0"
                   style="fill:#38a690;fill-opacity:1;fill-rule:nonzero;stroke:none"
                   id="path6464"
                   inkscape:connector-curvature="0" /></g></g></g></g><g
           id="g6472"><g
             id="g6474" /><g
             id="g6486"><g
               clip-path="url(#clipPath6478)"
               id="g6484"
               style="opacity:0.55999798"><g
                 transform="translate(70.8857,139.9834)"
                 id="g6482"><path
                   d="m 0,0 c 0,0 -2.695,-7.333 -13.538,-8.282 0.327,-3.132 12.961,2.588 13.032,5.477 C 0.914,-1.018 0,0 0,0"
                   style="fill:#38a690;fill-opacity:1;fill-rule:nonzero;stroke:none"
                   id="path6480"
                   inkscape:connector-curvature="0" /></g></g></g></g><g
           id="g6488"><g
             id="g6490" /><g
             id="g6502"><g
               clip-path="url(#clipPath6494)"
               id="g6500"
               style="opacity:0.55999798"><g
                 transform="translate(68.6494,143.4238)"
                 id="g6498"><path
                   d="M 0,0 C 0,0 -8.367,-8.812 -22.31,-5.337 -24.071,-9.75 -4.641,-7.51 -2.559,-3.602 0.416,-1.789 0,0 0,0"
                   style="fill:#38a690;fill-opacity:1;fill-rule:nonzero;stroke:none"
                   id="path6496"
                   inkscape:connector-curvature="0" /></g></g></g></g><g
           id="g6504"><g
             id="g6506" /><g
             id="g6518"><g
               clip-path="url(#clipPath6510)"
               id="g6516"
               style="opacity:0.55999798"><g
                 transform="translate(114.9795,134.6826)"
                 id="g6514"><path
                   d="M 0,0 C 0,0 13.199,-4.462 29.6,3.096 33.166,0.045 8.127,-4.641 4.314,-2.115 0.029,-1.618 0,0 0,0"
                   style="fill:#38a690;fill-opacity:1;fill-rule:nonzero;stroke:none"
                   id="path6512"
                   inkscape:connector-curvature="0" /></g></g></g></g><g
           id="g6520"><g
             id="g6522" /><g
             id="g6534"><g
               clip-path="url(#clipPath6526)"
               id="g6532"
               style="opacity:0.55999798"><g
                 transform="translate(106.4326,138.9834)"
                 id="g6530"><path
                   d="M 0,0 C 0,0 2.695,-7.333 13.538,-8.282 13.211,-11.414 0.577,-5.694 0.506,-2.805 -0.914,-1.018 0,0 0,0"
                   style="fill:#38a690;fill-opacity:1;fill-rule:nonzero;stroke:none"
                   id="path6528"
                   inkscape:connector-curvature="0" /></g></g></g></g><g
           id="g6536"><g
             id="g6538" /><g
             id="g6550"><g
               clip-path="url(#clipPath6542)"
               id="g6548"
               style="opacity:0.55999798"><g
                 transform="translate(108.6689,142.4238)"
                 id="g6546"><path
                   d="M 0,0 C 0,0 8.367,-8.812 22.31,-5.337 24.071,-9.75 4.641,-7.51 2.559,-3.602 -0.416,-1.789 0,0 0,0"
                   style="fill:#38a690;fill-opacity:1;fill-rule:nonzero;stroke:none"
                   id="path6544"
                   inkscape:connector-curvature="0" /></g></g></g></g><g
           id="g6552"
           transform="translate(109.1836,174.0117)"><path
             d="m 0,0 c 0,-0.829 -0.672,-1.5 -1.5,-1.5 h -34.667 c -0.828,0 -1.5,0.671 -1.5,1.5 0,0.829 0.672,1.5 1.5,1.5 H -1.5 C -0.672,1.5 0,0.829 0,0"
             style="fill:#3871c1;fill-opacity:1;fill-rule:nonzero;stroke:none"
             id="path6554"
             inkscape:connector-curvature="0" /></g><g
           id="g6556"
           transform="translate(109.1836,174.0117)"><path
             d="m 0,0 c 0,-0.829 -0.672,-1.5 -1.5,-1.5 h -34.667 c -0.828,0 -1.5,0.671 -1.5,1.5 0,0.829 0.672,1.5 1.5,1.5 H -1.5 C -0.672,1.5 0,0.829 0,0 Z"
             style="fill:none;stroke:#2c3792;stroke-width:1;stroke-linecap:butt;stroke-linejoin:miter;stroke-miterlimit:10;stroke-dasharray:none;stroke-opacity:1"
             id="path6558"
             inkscape:connector-curvature="0" /></g><g
           id="g6560"
           transform="translate(163.1826,150.3135)"><path
             d="m 0,0 c 0,-5.598 -5.372,-10.137 -12,-10.137 h -38.667 c -6.627,0 -12,4.539 -12,10.137 v 25.061 c 0,5.597 5.373,10.136 12,10.136 H -12 c 6.628,0 12,-4.539 12,-10.136 z"
             style="fill:#3871c1;fill-opacity:1;fill-rule:nonzero;stroke:none"
             id="path6562"
             inkscape:connector-curvature="0" /></g><g
           id="g6564"
           transform="translate(163.1826,150.3135)"><path
             d="m 0,0 c 0,-5.598 -5.372,-10.137 -12,-10.137 h -38.667 c -6.627,0 -12,4.539 -12,10.137 v 25.061 c 0,5.597 5.373,10.136 12,10.136 H -12 c 6.628,0 12,-4.539 12,-10.136 z"
             style="fill:none;stroke:#2c3792;stroke-width:1;stroke-linecap:butt;stroke-linejoin:miter;stroke-miterlimit:10;stroke-dasharray:none;stroke-opacity:1"
             id="path6566"
             inkscape:connector-curvature="0" /></g><g
           id="g6568"
           transform="translate(78.5176,150.3135)"><path
             d="m 0,0 c 0,-5.598 -5.372,-10.137 -12,-10.137 h -38.667 c -6.627,0 -12,4.539 -12,10.137 v 25.061 c 0,5.597 5.373,10.136 12,10.136 H -12 c 6.628,0 12,-4.539 12,-10.136 z"
             style="fill:#3871c1;fill-opacity:1;fill-rule:nonzero;stroke:none"
             id="path6570"
             inkscape:connector-curvature="0" /></g><g
           id="g6572"
           transform="translate(78.5176,150.3135)"><path
             d="m 0,0 c 0,-5.598 -5.372,-10.137 -12,-10.137 h -38.667 c -6.627,0 -12,4.539 -12,10.137 v 25.061 c 0,5.597 5.373,10.136 12,10.136 H -12 c 6.628,0 12,-4.539 12,-10.136 z"
             style="fill:none;stroke:#2c3792;stroke-width:1;stroke-linecap:butt;stroke-linejoin:miter;stroke-miterlimit:10;stroke-dasharray:none;stroke-opacity:1"
             id="path6574"
             inkscape:connector-curvature="0" /></g><g
           id="g6576"><g
             id="g6578" /><g
             id="g6590"><g
               clip-path="url(#clipPath6582)"
               id="g6588"
               style="opacity:0.25999505"><g
                 transform="translate(47.2246,149.3066)"
                 id="g6586"><path
                   d="m 0,0 c -1.147,-1.082 -6.983,5.103 -5.837,6.187 l 24.358,22.98 c 1.148,1.082 6.985,-5.104 5.836,-6.186 z"
                   style="fill:#50ade5;fill-opacity:1;fill-rule:nonzero;stroke:none"
                   id="path6584"
                   inkscape:connector-curvature="0" /></g></g></g></g><g
           id="g6592"><g
             id="g6594" /><g
             id="g6606"><g
               clip-path="url(#clipPath6598)"
               id="g6604"
               style="opacity:0.25999505"><g
                 transform="translate(32.5586,151.3066)"
                 id="g6602"><path
                   d="m 0,0 c -1.147,-1.082 -6.983,5.103 -5.837,6.187 l 24.358,22.98 c 1.148,1.082 6.985,-5.104 5.836,-6.186 z"
                   style="fill:#50ade5;fill-opacity:1;fill-rule:nonzero;stroke:none"
                   id="path6600"
                   inkscape:connector-curvature="0" /></g></g></g></g><g
           id="g6608"><g
             id="g6610" /><g
             id="g6622"><g
               clip-path="url(#clipPath6614)"
               id="g6620"
               style="opacity:0.25999505"><g
                 transform="translate(134.8916,147.6396)"
                 id="g6618"><path
                   d="m 0,0 c -1.147,-1.082 -6.983,5.104 -5.837,6.186 l 24.358,22.982 c 1.148,1.081 6.985,-5.105 5.836,-6.186 z"
                   style="fill:#50ade5;fill-opacity:1;fill-rule:nonzero;stroke:none"
                   id="path6616"
                   inkscape:connector-curvature="0" /></g></g></g></g><g
           id="g6624"><g
             id="g6626" /><g
             id="g6638"><g
               clip-path="url(#clipPath6630)"
               id="g6636"
               style="opacity:0.25999505"><g
                 transform="translate(123.5576,151.6602)"
                 id="g6634"><path
                   d="m 0,0 c -1.147,-1.081 -6.795,4.904 -5.648,5.987 l 24.357,22.982 c 1.148,1.081 6.797,-4.906 5.648,-5.988 z"
                   style="fill:#50ade5;fill-opacity:1;fill-rule:nonzero;stroke:none"
                   id="path6632"
                   inkscape:connector-curvature="0" /></g></g></g></g><g
           id="g6640"
           transform="translate(154.9941,177.0615)"><path
             d="m 0,0 c -12.858,-2.199 -31.518,13.218 -39.942,2.576 -1.879,-0.073 -5.502,5.9 -5.415,9.028 0.086,3.127 2.693,5.593 5.823,5.507 l 17.26,-2.816 C -19.146,14.207 3.353,0.573 0,0"
             style="fill:#c13f2a;fill-opacity:1;fill-rule:nonzero;stroke:none"
             id="path6642"
             inkscape:connector-curvature="0" /></g><g
           id="g6644"
           transform="translate(154.9941,177.0615)"><path
             d="m 0,0 c -12.858,-2.199 -31.518,13.218 -39.942,2.576 -1.879,-0.073 -5.502,5.9 -5.415,9.028 0.086,3.127 2.693,5.593 5.823,5.507 l 17.26,-2.816 C -19.146,14.207 3.353,0.573 0,0 Z"
             style="fill:none;stroke:#a32524;stroke-width:1;stroke-linecap:butt;stroke-linejoin:miter;stroke-miterlimit:10;stroke-dasharray:none;stroke-opacity:1"
             id="path6646"
             inkscape:connector-curvature="0" /></g><g
           id="g6648"
           transform="translate(23.2441,176.0723)"><path
             d="m 0,0 c 12.955,-1.55 30.813,14.79 39.764,4.585 1.88,0.021 5.198,6.169 4.953,9.289 -0.244,3.12 -2.972,5.451 -6.093,5.206 L 21.527,15.398 C 18.405,15.153 -3.377,0.403 0,0"
             style="fill:#c13f2a;fill-opacity:1;fill-rule:nonzero;stroke:none"
             id="path6650"
             inkscape:connector-curvature="0" /></g><g
           id="g6652"
           transform="translate(23.2441,176.0723)"><path
             d="m 0,0 c 12.955,-1.55 30.813,14.79 39.764,4.585 1.88,0.021 5.198,6.169 4.953,9.289 -0.244,3.12 -2.972,5.451 -6.093,5.206 L 21.527,15.398 C 18.405,15.153 -3.377,0.403 0,0 Z"
             style="fill:none;stroke:#a32524;stroke-width:1;stroke-linecap:butt;stroke-linejoin:miter;stroke-miterlimit:10;stroke-dasharray:none;stroke-opacity:1"
             id="path6654"
             inkscape:connector-curvature="0" /></g></g></g></g></svg>